<?xml version="1.0" encoding="UTF-8"?><svg id="a" xmlns="http://www.w3.org/2000/svg" viewBox="0 0 200 200"><defs><style>.c{fill:#fff;}.d{fill:#ff4e4b;}.e{fill:#ff929b;}.f{fill:#9d9fa2;}.g,.h{fill:#e0e0e0;}.h,.i{stroke:#000;stroke-miterlimit:10;stroke-width:4px;}</style></defs><g><path class="h" d="M149.8,103.42h0c-.03,.31-.07,.62-.11,.93-.38,2.69-.99,5.29-1.81,7.79-2.33,7.19-6.36,13.52-11.55,18.58-4.48,4.37-9.82,7.8-15.69,10.06-2.6,.99-5.3,1.76-8.09,2.27h-.01c-1.02,.19-2.05,.34-3.1,.46-.31,.04-.63,.07-.95,.1-1.19,.11-2.38,.17-3.59,.18-.35,.01-.7,.01-1.06,0-.56,0-1.13-.01-1.7-.05-.21,0-.42-.01-.63-.03-.76-.04-1.52-.11-2.29-.2-.39-.04-.79-.08-1.18-.14-.08-.01-.15-.02-.23-.03-1.01-.14-2.01-.32-2.99-.52-.44-.1-.88-.19-1.31-.3-.65-.15-1.3-.33-1.95-.51-.26-.07-.52-.15-.78-.24-3.24-.98-6.31-2.31-9.17-3.94-.31-.17-.62-.35-.92-.54-1.49-.89-2.92-1.86-4.29-2.91-.14-.1-.28-.21-.41-.32-.88-.68-1.73-1.4-2.55-2.15-.64-.57-1.25-1.16-1.85-1.76-.17-.17-.33-.35-.5-.52-.13-.13-.25-.26-.38-.4-.32-.34-.63-.69-.95-1.05-.5-.58-1-1.17-1.48-1.78-3.26-4.12-5.82-8.78-7.52-13.81h0c-.88-2.6-1.54-5.29-1.92-8.04-.01-.01-.01-.02-.01-.03-.62-4.23-.65-8.62-.02-13.06,2.2-15.49,11.89-28.07,24.9-34.59,4.56-2.29,9.52-3.83,14.71-4.49h.01c3.98-.51,8.09-.5,12.26,.09,15.3,2.17,27.76,11.64,34.35,24.39,4.09,7.92,5.92,17.08,4.76,26.56Z"/><g><path d="M147.26,89.41c-.77-4.29-1.56-8.59-2.28-12.89-.12-.69-.07-1.45,.08-2.14,.15-.7,1.06-1.17,1.78-1.13,1.54,.07,3.08,.21,4.62,.15,2.65-.11,4.57,1.05,5.97,3.18,.34,.52,.53,1.19,.64,1.82,1.05,5.76,2.05,11.53,3.12,17.28,.44,2.37-.23,4.34-1.91,5.98-.53,.52-1.2,.95-1.88,1.24-1.54,.65-3.13,1.19-4.7,1.77-1.63,.6-2.7,0-3.01-1.73-.48-2.61-.94-5.23-1.41-7.84-.34-1.89-.68-3.79-1.02-5.68h0Z"/><path d="M59.78,108.5c.75,3.11,1.5,6.21,2.23,9.32,.29,1.23-.16,1.86-1.43,1.95-1.21,.09-2.42,.19-3.64,.18-1.81,0-3.77-1.29-4.2-3.08-1.01-4.23-2.04-8.47-3.05-12.7-.45-1.87,.95-4.21,2.83-4.83,.97-.32,1.86-.84,2.78-1.29,1.07-.52,1.91-.15,2.19,1.01,.77,3.14,1.51,6.29,2.27,9.43Z"/></g><g><path d="M124.03,91.97c-2.24-6.27-6.22-9.6-10.74-11.69-5.38-2.48-10.78-2.7-16.21-2.17-2.58,.66-5.21,1.15-7.74,2.03-7.06,2.45-13.61,6.31-18.26,14.03-1.86,3.08-3.34,7.02-4.05,10.99-1.12,6.31,1.97,10.67,6.71,10.27,1.2-.1,2.41-.39,3.54-.88,11-4.74,22.33-6.78,34.27-4.7,2.51,.44,5.22-.05,7.58-1.04,5.41-2.27,7.47-9.67,4.9-16.84Z"/><path class="c" d="M108.29,90.7c3.2-.18,5.8,2.49,5.77,5.51-.03,3.06-2.05,5.56-5.36,5.73-3.2,.16-5.78-2.16-5.94-5.52-.13-2.79,2.3-5.81,5.52-5.72Z"/><path class="c" d="M78.08,99.49c2.12-.6,4.12-.3,5.95,.89,.82,.54,1.59,1.21,1.79,2.29,.13,.67-.29,1.48-.94,1.69-.1,.03-.2,.05-.3,.09-.97,.48-1.7,.14-2.35-.64-.73-.86-2.85-1.12-3.8-.33-.83,.68-1.27,1.48-1.46,2.44-.22,1.09-1.09,1.41-2.09,1.45-.78,.03-1.5-.85-1.55-1.72-.09-1.42,.47-2.62,1.28-3.72,.88-1.18,2.02-2.02,3.45-2.46Z"/></g><path d="M80.6,57.82c.91-3.1,3.36-5.27,6.03-7.1,1.24-.85,3.31-.81,3.04-3.31-.24-2.27-1.98-2.28-3.41-2.96-4.24-2.02-6.07-6.07-4.75-10.27,1.24-3.94,5.26-6.42,9.33-5.77,4.24,.68,7.21,4.49,7.02,8.93-.09,2.12-.99,3.86-2.44,5.31-1.06,1.06-2.2,1.83-1.64,3.72,.61,2.06,2.06,1.69,3.54,1.81,2.51,.22,5.38,.58,6.94,2.42l-23.67,7.22Z"/><path class="d" d="M91.73,36.06c.22,1.3-.17,2.7-1.26,3.6-.48,.4-1.06,.64-1.67,.77-2.53,.55-4.32-.74-4.75-3.17-.4-2.27,1.01-3.97,3.2-4.31,1.04-.16,2.12,0,2.98,.63,.83,.6,1.34,1.51,1.5,2.48Z"/></g><g id="b"><g><path class="i" d="M108.73,144.83c-.15-.38-.21-.8-.24-1.22,0-.04-.01-.09-.01-.13-.06-1.09-.01-2.21-.49-3.23-.27-.59-.58-1.16-.89-1.73-.16-.29-.32-.57-.47-.85-.2-.37-.47-.71-.62-1.1-.58-1.5-1.44-2.84-2.42-4.1-.66-.86-1.32-1.78-2.28-2.31-.72-.4-1.23-.97-1.81-1.51-.8-.74-1.7-1.38-2.59-2.02-.57-.42-1.24-.61-1.97-.61-.3,0-.61-.15-.9-.26-.2-.08-.37-.22-.57-.31-1.7-.81-3.51-1.08-5.37-.87-.98,.11-1.95,.26-2.95,.18-.58-.04-1.17,.09-1.75,.16-.19,.03-.3-.03-.41-.17-.31-.39-.71-.62-1.19-.71-1.04-.21-2.08-.22-3.13-.16-.88,.06-1.75,.21-2.53,.61-.47,.24-.89,.22-1.38,.18-1.59-.12-3.11,.15-4.5,.97-.15,.08-.31,.2-.39,.34-.18,.34-.47,.39-.8,.4-.27,.01-.53,.01-.79,.02-.24,.02-.48,.04-.72,.09-2.69,.55-4.95,1.91-6.89,3.83-.32,.32-.56,.73-.76,1.14-.16,.31-.34,.56-.64,.72-1.61,.84-2.84,2.11-3.96,3.51-.82,1.04-1.37,2.16-1.23,3.54,.02,.15-.09,.35-.2,.47-.24,.26-.47,.53-.69,.81-.92,1.19-1.56,2.52-1.67,4.09-.01,.21-.04,.43-.05,.65-.02,.48,0,.96,.21,1.42,.14,.3,.15,.56-.01,.84-.34,.58-.46,1.22-.42,1.89,0,.2,0,.39-.01,.59,0,.07,0,.15,.01,.22,.02,.39,.13,.76,.31,1.11,.19,.37,.4,.74,.55,1.14,.06,.17,.02,.39-.01,.58-.06,.37-.22,.74-.19,1.1,0,.06,.01,.13,.02,.19,.04,.43,.13,.87,.28,1.28,.14,.36,.3,.71,.48,1.04,.67,1.25,1.62,2.29,2.76,3.18l.12,.09c.35,.27,.74,.5,1.14,.68,.55,.25,1.15,.31,1.73,.05,.2-.08,.36-.09,.55,0,.5,.22,1.02,.23,1.53,.02,.24-.1,.41-.06,.58,.11,.13,.14,.26,.27,.39,.4,.54,.58,1.11,1.12,1.81,1.52,.19,.1,.36,.28,.47,.46,.26,.46,.61,.8,1.05,1.07,1.66,1.01,3.47,1.37,5.38,1.02,.8-.15,1.58-.46,2.44-.72,.13,.21,.29,.48,.47,.74,.59,.89,1.33,1.61,2.33,2.03,.33,.14,.67,.22,1.02,.08,.28-.11,.51-.04,.76,.1,.42,.22,.85,.47,1.3,.62,1.85,.6,3.67,.38,5.45-.32,.43-.16,.81-.32,1.25-.05,.08,.05,.2,.05,.3,.07,.81,.1,1.62,.08,2.41-.14,1.13-.32,2.19-.81,3.21-1.41,.09-.05,.27-.07,.34-.01,.81,.7,1.79,.94,2.81,1.05,1.56,.17,2.94-.21,4.12-1.29,.39-.35,.8-.66,1.22-.97,.08-.06,.17-.13,.26-.19,2.11-1.52,3.17-3.5,2.67-6.16-.03-.17,.01-.28,.16-.39,.38-.28,.78-.57,1.13-.89,.64-.57,1.24-1.18,1.75-1.84,.75-.94,1.33-2,1.61-3.24,.03-.17,.16-.36,.3-.44,.49-.28,.82-.7,1-1.21,0-.01,.01-.03,.01-.04,.23-.68,.45-1.36,.56-2.06,.2-1.26,.13-2.51-.35-3.73Zm-2.98-5.55c0-.11,.04-.22,.06-.33,0-.03,.03-.05,.07-.13,.1,.16,.2,.32,.29,.48,.49,.87,.85,1.76,.98,2.74,.06,.4,.06,.81,.06,1.22-.01,.31-.09,.33-.37,.24-.4-.13-.81-.26-1.23-.36-.42-.09-.67-.5-.52-.9,.14-.39,.27-.78,.37-1.18,.06-.2,.1-.4,.14-.6,.01-.02,.01-.03,.01-.04,.04-.19,.07-.39,.09-.58,.03-.18,.04-.37,.05-.56Zm-45.69,20.23c-.22,.17-.46,.08-.66-.05-.82-.54-1.35-1.31-.9-2.34,.03-.07,.05-.15,.07-.24-.55,.34-.8,.99-.64,1.62,.05,.21,.1,.44,.11,.66,0,.39-.2,.52-.56,.39-.15-.05-.3-.12-.44-.19-.14-.06-.27-.14-.4-.21-.51-.31-.96-.7-1.37-1.14-.7-.73-1.23-1.57-1.65-2.48h0l-.06-.13c-.05-.1-.09-.19-.11-.29-.03-.08-.05-.17-.07-.25-.02-.12-.04-.23-.05-.34-.02-.28-.01-.56,.02-.84,.03-.3,.18-.36,.38-.15,.72,.79,1.42,1.59,2.1,2.41,.14,.17,.16,.43,.27,.73,.05-.15,.11-.24,.12-.34,.03-.59-.06-1.15-.46-1.61-.51-.59-1.04-1.17-1.53-1.77-.44-.53-.9-1.06-1.26-1.63-.09-.14-.17-.29-.23-.43-.08-.15-.13-.29-.17-.44-.03-.09-.05-.17-.06-.26-.01-.03-.02-.07-.02-.1l-.03-.18c-.01-.11-.02-.22-.02-.32-.01-.75,.28-1.48,.85-2.14,.12-.14,.23-.29,.36-.42,.47-.47,.37-.98,.14-1.57-.14,.26-.25,.49-.38,.7-.07,.11-.2,.19-.3,.28-.08-.12-.24-.25-.24-.37,0-.65-.02-1.31,.07-1.96,.12-.93,.48-1.79,1.11-2.5,1.02-1.16,2.1-2.28,3.15-3.41,.12-.13,.29-.21,.48-.3-.15,.75-.18,1.47,.18,2.17,.18-.64,.36-1.28,.53-1.91,.03-.12,.01-.25,0-.37-.08-.71-.54-.98-1.13-.59-.51,.33-.95,.77-1.42,1.17-.15,.13-.28,.28-.45,.45-.13-.38-.08-.69,.07-.95,.29-.53,.57-1.08,.96-1.54,.67-.77,1.39-1.51,2.15-2.19,.89-.78,1.95-1.2,3.14-1.28,.28-.02,.55-.1,.81-.2,.71-.27,.94-.83,.65-1.59-.13,.21-.24,.42-.38,.61-.31,.42-.98,.61-1.46,.41-.23-.09-.29-.26-.17-.47,.1-.15,.22-.3,.35-.43,1.73-1.67,3.74-2.83,6.1-3.34,.41-.09,.83-.1,1.25-.14,.1,0,.2,.01,.3,.02,.01,.03,.02,.06,.02,.09-.15,.08-.31,.16-.46,.24-.65,.33-1.31,.64-1.93,1.01-.46,.28-.87,.64-1.12,1.21,.08-.04,.12-.05,.15-.07,.64-.59,1.44-.88,2.23-1.21,.35-.15,.7-.31,1.04-.48,.23-.11,.45-.22,.67-.34,.15-.07,.29-.15,.44-.23,.49-.26,.97-.3,1.49-.17,.27,.08,.55,.15,.84,.23-.11-.28-.28-.43-.79-.68-.31-.16-.63-.3-1.02-.49,.28-.17,.5-.34,.74-.44,1.07-.43,2.19-.56,3.33-.41,.27,.04,.55,.17,.79,.32,.3,.19,.29,.42-.03,.58-.3,.14-.63,.23-.95,.34-.09,.03-.19,.04-.36,.08,.37,.32,.74,.38,1.12,.35,.16-.02,.32-.08,.47-.16,.86-.48,1.74-.92,2.8-.76,.01-.03,.01-.07,.01-.1-.09-.05-.18-.12-.29-.15-.49-.11-.98-.2-1.47-.32-.14-.04-.27-.14-.4-.21,.11-.12,.19-.3,.32-.36,.73-.36,1.51-.47,2.31-.48,.75-.01,1.51,.05,2.27,.11,.2,.02,.38,.19,.57,.29-.15,.13-.29,.3-.47,.39-.78,.39-1.56,.77-2.35,1.14-.19,.09-.4,.15-.61,.19-.66,.13-1.26,.39-1.78,.81-.35,.27-.73,.39-1.16,.49-.95,.22-1.89,.21-2.85,.23-.58,.01-1.17,.16-1.73,.34-.1,.03-.2,.08-.29,.12-.06,.04-.12,.08-.17,.11-.06,.05-.12,.09-.17,.14-.07,.06-.13,.11-.18,.18-.13,.14-.23,.29-.32,.46-.04,.07-.06,.13-.09,.19-.03,.06-.05,.13-.07,.19,.47-.29,.89-.65,1.38-.87,.28-.12,.57-.21,.9-.21,.09,0,.17,.03,.34,.06-.26,.22-.46,.39-.65,.57-.03,.03-.07,.06-.09,.1-.27,.26-.52,.53-.79,.79-.16,.15-.32,.29-.49,.42-.43,.32-.88,.61-1.28,.95-.39,.34-.81,.59-1.32,.7-.58,.13-1.07,.4-1.32,1.02,.17-.06,.34-.14,.52-.18,.2-.06,.45-.28,.6-.04,.07,.11-.09,.42-.22,.57-.61,.67-1.24,1.32-1.88,1.96-.09,.09-.31,.19-.38,.15-.14-.09-.28-.28-.29-.43-.05-.82,.08-1.61,.6-2.28,.32-.41,.69-.78,1.04-1.17,.43-.49,.87-.98,1.29-1.48,.12-.15,.18-.36,.3-.61-.12,.04-.16,.05-.19,.07-.77,.66-1.54,1.32-2.31,1.98-.75,.64-1.23,1.43-1.34,2.42-.03,.24-.15,.4-.37,.52-.73,.39-1.45,.81-2.18,1.19-.2,.11-.43,.14-.65,.21,0-.24-.03-.48,.02-.7,.08-.31,.22-.6,.36-.89,.18-.39,.49-.56,.92-.48,.11,.02,.22,.03,.33,0-.43-.46-.95-.72-1.59-.69-1.07,.06-1.8,.69-2.45,1.44,.01,.03,.02,.06,.03,.08,.14-.05,.27-.09,.4-.15,.33-.14,.65-.32,.99-.43,.43-.15,.71,.13,.6,.57-.05,.18-.15,.34-.2,.52-.12,.39-.21,.79-.35,1.17-.2,.52-.42,1.04-.68,1.54-.17,.34-.43,.65-.62,.98-.39,.65-.46,1.34-.2,2.05,.16,.42,.35,.83,.54,1.24,.3,.69,.24,1.01-.3,1.54-.28,.27-.56,.54-.85,.81-.59,.55-.79,1.25-.74,2.03,.02,.31,.09,.62,.08,.92,0,.2-.07,.43-.19,.58-.26,.34-.47,.69-.52,1.23,.64-.68,1.29-1.11,2.18-.55,.01-.03,.02-.07,.03-.11-.1-.14-.18-.3-.3-.42-1.04-1.02-.76-2.47,.18-3.29,.29-.25,.55-.53,.82-.8,.46-.46,.56-1.02,.41-1.62-.08-.36-.2-.71-.36-1.04-.51-1.13-.35-2.13,.45-3.07,.93-1.09,2.04-1.96,3.28-2.67,.48-.28,.53-.25,.78,.25,.16,.3,.33,.59,.52,.87,.13,.21,.17,.43,.03,.61-.68,.8-1.37,1.61-2.08,2.38-.22,.24-.58,.06-.57-.28,0-.32,.1-.64,.2-.95,.05-.19,.17-.37,.27-.56-.47,.1-.97,.7-1.12,1.29-.13,.51,0,1,.15,1.48,.13,.39,.08,.72-.07,1.09-.2,.48-.33,.99-.46,1.5-.22,.85-.4,1.71-.62,2.57-.29,1.15-.59,2.3-.89,3.45-.01,.03-.01,.06-.02,.09-.26,1.26-.79,1.62-2.04,1.32-.13-.03-.27-.08-.4-.13,0,0,0-.01-.01-.01-.11-.03-.22-.08-.33-.13-.07-.03-.13-.06-.2-.1-.1-.05-.2-.11-.29-.17-.32-.21-.57-.48-.73-.79-.16-.28-.26-.61-.28-.98-.09-1.42,.12-2.76,.78-4.03,.36-.68,.66-1.39,.95-2.1,.22-.53,.32-1.08,.21-1.66-.03-.14-.06-.29-.13-.41-.2-.36-.48-.65-.93-.66-.45,0-.7,.31-.87,.68-.24,.52-.24,1.06-.12,1.6,.03,.01,.06,.01,.09,.02,.04-.14,.06-.29,.11-.43,.12-.28,.23-.56,.39-.82,.14-.22,.41-.31,.63-.18,.14,.08,.25,.31,.28,.49,.07,.43-.02,.84-.22,1.23-.39,.76-.78,1.53-1.17,2.3-.7,1.38-.96,2.83-.62,4.36,.02,.08,.04,.16,.07,.23,.01,.04,.02,.07,.04,.11,.05,.15,.1,.3,.16,.43-.01,.02,0,.04,.02,.06,.06,.12,.12,.23,.18,.33,.02,.04,.05,.08,.08,.12,.07,.1,.15,.2,.23,.28,.09,.11,.18,.19,.28,.27,.09,.08,.18,.14,.28,.19,.3,.2,.65,.34,1.05,.43,.12,.03,.24,.06,.37,.07,.05,.02,.1,.03,.15,.03,.05,.01,.09,.01,.14,.02,.36,.04,.73,.1,1.08,.2,.5,.15,.78,.59,.76,1.11-.01,.31-.11,.39-.4,.29-.26-.09-.51-.22-.77-.31-.12-.04-.26-.04-.41-.01-.09,.02-.17,.05-.26,.08-.05,.03-.1,.05-.15,.08-.04,.03-.09,.06-.13,.09-.04,.03-.08,.06-.12,.1-.04,.03-.07,.07-.1,.11-.03,.03-.05,.07-.07,.11,.28,.03,.58,.02,.86,.08,.02,0,.04,0,.06,.02,.12,.03,.22,.06,.32,.11,.08,.03,.15,.07,.22,.11,.48,.28,.8,.72,1,1.29,.3,.87,.61,1.74,.91,2.61,.03,.09,.05,.18,.07,.27,.04,.28-.05,.53-.28,.71Zm12.12,3.55c-.14,.15-.3,.28-.48,.38-1.41,.81-2.91,1.04-4.47,.53-.6-.2-1.18-.51-1.76-.79-.19-.09-.34-.25-.53-.38,.18-.28,.37-.26,.58-.2,.65,.2,1.28,.43,1.94,.57,1.35,.29,2.67,.18,3.96-.33,.18-.07,.37-.14,.56-.17,.11-.02,.24,.02,.37,.03-.05,.13-.08,.27-.17,.36Zm14.42,3.55c-.46,.05-.91,.09-1.23-.37,.3-.44,.61-.87,.91-1.31,.13-.18,.24-.38,.36-.57,.24-.36,.57-.54,1.01-.56,1.49-.06,2.72-.7,3.79-1.69,.19-.18,.35-.41,.49-.64,.13-.2,.28-.31,.52-.31,1.52,0,2.89-.54,4.24-1.16,.44-.2,.91-.37,1.37-.52,.12-.04,.31,0,.39,.08,.06,.07,.05,.26,0,.37-.11,.22-.24,.45-.41,.64-1.1,1.19-2.38,2.14-3.82,2.87-.22,.11-.48,.18-.73,.22-.42,.06-.53-.08-.4-.49,.15-.5,.1-.68-.32-.99-.1,.26-.17,.49-.28,.71-.16,.31-.3,.64-.52,.89-1.42,1.64-3.21,2.59-5.37,2.83Zm10.56-2.28c-.46-.21-.91-.41-1.36-.62-.16-.08-.18-.23-.02-.34,.37-.25,.75-.48,1.12-.72,.29,.42,.4,1.15,.26,1.68Zm-1.4,1.66c-1.05,.17-2.06,.07-3.03-.42-.06-.03-.12-.08-.17-.13-.23-.17-.22-.36-.07-.59,.15-.22,.29-.22,.53-.11,.8,.36,1.62,.69,2.43,1.02,.11,.05,.22,.09,.34,.14l-.03,.09Zm1.03-.52c-1.07-.21-2.1-.54-3.09-1.01-.03-.02-.05-.04-.07-.05,.33-.42,1.09-.58,1.53-.38,.7,.31,1.42,.6,2.12,.9,.07,.03,.12,.07,.2,.11-.17,.28-.34,.5-.69,.43Zm1.1-1.02c-.02-.08-.04-.16-.05-.25-.09-.52-.14-1.05-.27-1.56-.07-.29-.04-.48,.18-.66,.15-.11,.27-.24,.47-.42,.12,.34,.25,.61,.29,.89,.06,.43,.1,.87,.08,1.3-.02,.39-.27,.63-.7,.7Zm1.43-.75s-.04,.03-.06,.04c-.06-.46-.1-.89-.19-1.32-.07-.34-.17-.68-.31-.99-.11-.22-.09-.37,.06-.55,.11-.12,.2-.25,.37-.47l.15,.45c.06,.18,.11,.35,.16,.51,.06,.16,.1,.33,.15,.49,.08,.31,.07,.63,.11,.95,.06,.4-.1,.68-.44,.89Zm1.14-1.12c-.06-.17-.11-.31-.15-.44-.19-.61-.35-1.22-.59-1.81-.11-.29-.13-.49,.09-.71,.09-.09,.18-.19,.29-.3,.54,.7,.79,2.73,.36,3.26Zm.9-1.89h-.1c-.2-.6-.4-1.2-.59-1.8,.54-.08,.68,.03,.69,.56,.01,.41,0,.82,0,1.24Zm4.27-7.61c-.32,.79-.81,1.48-1.37,2.11-.15,.17-.3,.33-.46,.49-1.08,1.11-2.32,2.02-3.71,2.72-.05,.02-.1,.05-.15,.07-.25,.12-.51,.21-.77,.29-.33,.11-.75-.06-.9-.36-.06-.12-.07-.31-.02-.43,.3-.67,.71-1.23,1.48-1.45,1.28-.37,2.42-1.02,3.36-1.98,.46-.47,.83-.99,1.07-1.6,.05-.12,.07-.24,.11-.37-.03-.01-.05-.03-.07-.05-.15,.11-.31,.22-.45,.34-.67,.6-1.31,1.22-2,1.79-.52,.44-1.1,.82-1.8,.96-.38,.07-.66-.06-.86-.38-.11-.18-.21-.36-.33-.52-.24-.34-.57-.46-.97-.34-.47,.14-.86,.39-1.24,.68,.01,.02,.02,.05,.03,.07,.15-.03,.31-.06,.46-.11,.66-.2,1.35,.33,1.23,1.08-.2,1.23-.86,2.18-1.77,2.97-.71,.62-1.52,1.07-2.47,1.18-.29,.03-.62,.02-.91-.05-.47-.11-.58-.47-.31-.87,.07-.1,.15-.18,.22-.26,.07-.08,.13-.17,.2-.25-.03-.02-.05-.05-.07-.07-.13,.08-.29,.14-.39,.25-.37,.41-.73,.83-1.08,1.25-.21,.26-.38,.54-.57,.81-.97,1.34-2.29,1.95-3.93,2.01-.96,.04-1.92,.18-2.87,.31-.62,.08-1.12,.42-1.57,.92,.54-.14,1.03-.28,1.53-.39,.27-.05,.55-.07,.82-.04,.39,.03,.53,.26,.45,.64-.11,.56-.42,1-.85,1.36-.9,.74-1.97,1.09-3.1,1.26-1.07,.16-2.11,.09-3.09-.4-.94-.46-1.61-1.19-2.09-2.11-.15-.27-.28-.54-.44-.84-.26,.43-.45,.82-.19,1.29,.14,.25,.24,.52,.33,.79,.03,.09,0,.2-.01,.3-.1,0-.21,0-.32-.03-.03,0-.07-.03-.1-.05-1.33-.96-2.25-2.16-2.37-3.85-.05-.67,.33-.93,.92-.61,.87,.46,1.73,.97,2.7,1.17,.87,.19,1.76,.31,2.64,.46,.37,.06,.72,.17,.93,.53,.22,.4,.18,.79-.22,1.02-.29,.17-.64,.24-.97,.36-.11,.03-.22,.04-.35,.07,.85,.53,2.02,.19,2.38-.71,.07-.18,.05-.42,0-.63-.18-.92-.14-.85,.61-1.37,.99-.67,2.06-.94,3.22-1.07,1.45-.17,2.61-.88,3.37-2.16,.06-.1,.12-.21,.17-.31-.02-.02-.04-.03-.06-.05-.26,.24-.53,.48-.79,.71-.81,.69-1.7,1.15-2.81,1.04-.18-.01-.37-.05-.53-.13-.43-.2-.56-.64-.34-1.06,.2-.36,.51-.59,.89-.73,.79-.29,1.36-.82,1.71-1.58,.16-.33,.39-.53,.76-.54,.75-.03,1.5-.07,2.25-.08,1.18-.02,2.3-.26,3.34-.83,.18-.09,.32-.09,.49,.01,.36,.24,.73,.45,1.08,.69,.35,.25,.53,.59,.47,1.04-.04,.25-.03,.51-.05,.78,.07-.02,.11-.02,.12-.03,.57-.68,.53-1.79-.12-2.39-.28-.25-.61-.45-.92-.66-.25-.17-.3-.35-.14-.62,.37-.61,.8-1.13,1.52-1.37,.77-.24,1.42-.71,2.06-1.2,.57-.43,1.17-.46,1.76-.09,.23,.15,.42,.38,.6,.6,.16,.18,.27,.4,.44,.65,.09-.44,.22-.85-.02-1.19-.21-.31-.53-.55-.81-.83,1.74-1.11,3.03-2.57,3.29-4.73-.02-.02-.05-.04-.07-.05-.06,.1-.12,.21-.18,.32-.65,1.29-1.53,2.4-2.66,3.3-.26,.21-.57,.37-.88,.51-.26,.11-.36,.01-.35-.27,.01-.2,.04-.39,.06-.58,.04-.34-.08-.62-.36-.91-.05,.22-.1,.41-.13,.6-.24,1.17-.84,2.09-1.8,2.78-.23,.16-.5,.29-.76,.39-.54,.19-.97,.09-1.28-.38-.27-.42-.46-.91-.67-1.38-.11-.25-.16-.52-.3-.79-.04,.11-.1,.22-.12,.34-.09,.61-.04,1.21,.21,1.78,.54,1.2,.4,1.76-.61,2.61-.84,.7-1.86,.96-2.91,1.05-.61,.06-1.25,0-1.86-.06-.51-.05-.92-.31-1.06-.85-.37-1.39-.99-2.69-1.57-4.01-.14-.32-.27-.66-.15-1.04,.12-.35,.33-.56,.7-.6,.2-.02,.39-.04,.59-.07-.29-.39-1.02-.52-1.48-.27-.41,.23-.66,.54-.63,1.07,.05,.69,.19,1.33,.51,1.95,.35,.65,.69,1.31,1,1.98,.62,1.34,.4,2.61-.59,3.6-.51,.51-1.09,.76-1.84,.48-.75-.28-1.54-.44-2.35-.39-.88,.05-1.63,.63-1.81,1.41-.08,.36-.03,.7,.14,1.02,.03-.01,.06-.01,.09-.01,.02-.09,.05-.18,.05-.28,.06-.8,.44-1.24,1.24-1.3,.48-.03,.99,.01,1.46,.12,.73,.16,1.01,.75,.67,1.41-.74,1.41-1.81,2.37-3.51,2.41-1.27,.04-2.51-.11-3.68-.6-.39-.16-.74-.42-1.1-.63,0-.04,.01-.08,.02-.12,.15-.05,.29-.11,.44-.16,.37-.11,.74-.19,1.09-.32,1.51-.55,2.02-2.12,1.15-3.47-.52-.8-1.26-1.32-2.18-1.56-.77-.2-1.56-.36-2.33-.55-.45-.11-.9-.23-1.33-.38-.38-.13-.47-.31-.45-.71,.02-.4,.05-.8,.06-1.2,0-.25-.03-.52-.35-.64,0,.08-.03,.15-.03,.22-.07,.7-.42,1.11-1.11,1.24-.31,.06-.64,.04-.95,.05h-.35s-.03,.07-.04,.1c.29,.15,.57,.31,.87,.45,.21,.11,.48,.17,.65,.32,.84,.74,1.85,1.08,2.9,1.36,.94,.26,1.89,.5,2.82,.79,.77,.24,1.27,.77,1.4,1.6,.09,.64-.16,1.15-.67,1.52-.46,.34-.99,.45-1.54,.48-.24,.02-.39-.1-.39-.36,0-.21,0-.43,0-.65,0-.32-.15-.55-.44-.74-.07,.3-.11,.58-.2,.85-.45,1.37-1.44,2.25-2.66,2.93-1.48,.83-4.4,.7-5.68-.44-.53-.47-.97-.97-1.09-1.69-.06-.33,.01-.59,.26-.81,.23-.21,.44-.43,.68-.67-.56,.02-1.08,.13-1.56,.03-.47-.1-.88-.42-1.37-.6,.04,.1,.07,.22,.14,.31,.17,.23,.34,.46,.53,.68,.29,.33,.53,.68,.66,1.13,.1,.38,.34,.72,.49,1.08,.06,.13,.04,.29,.06,.44-.15,.01-.3,.05-.44,.02-.16-.03-.32-.11-.44-.2-1.61-1.26-2.77-2.8-3.03-4.89-.03-.28,.02-.53,.21-.75,.14-.17,.27-.22,.47-.09,.26,.17,.53,.32,.8,.46,.77,.39,1.57,.5,2.34,.1,.73-.37,1.38-.29,2.04,.1,.65,.39,1.32,.75,1.95,1.18,.86,.58,1.39,1.32,.91,2.44,.73-.34,1.1-1.27,.7-1.91-.24-.4-.59-.77-.97-1.05-.6-.44-1.27-.79-1.91-1.18-.21-.13-.41-.28-.61-.42-1.16-.82-1.05-2.18-.54-3.01,.46-.76,1.1-1.32,1.83-1.8,.79-.54,1.61-1.02,2.56-1.25,.8-.19,1.47,.03,1.96,.69,.32,.45,.6,.93,.88,1.41,.26,.44,.49,.9,.76,1.34,.11,.18,.25,.35,.41,.5,.33,.33,.74,.44,1.18,.25,.32-.14,.63-.32,.93-.49,.57-.34,1.12-.73,1.85-.73-.13-.3-.37-.37-.59-.31-.35,.09-.7,.23-1.03,.39-.3,.13-.57,.33-.86,.46-.41,.19-.78,.11-1.06-.24-.23-.3-.45-.63-.64-.97-.42-.77-.82-1.54-1.21-2.32-.05-.11-.02-.3,.05-.42,.22-.4,.33-.81,.26-1.33-.09,.12-.14,.2-.21,.27-.23,.22-.46,.46-.71,.66-.26,.19-.54,.21-.84,.05-.51-.26-1.03-.22-1.54,.02-.21,.1-.41,.21-.62,.29-.34,.14-.47,.06-.5-.31-.02-.25-.03-.49-.07-.74-.06-.36-.19-.7-.55-.99-.04,.16-.07,.26-.08,.37-.03,.29-.05,.59-.06,.89-.04,.87-.43,1.55-1.11,2.11-.53,.44-1.04,.9-1.5,1.4-.71,.77-.97,1.68-.68,2.71,.12,.41-.02,.72-.38,.96-.53,.35-1.09,.36-1.68,.15-1.28-.45-2.28-1.88-2.34-3.33-.06-1.46,.37-2.8,1-4.09,.81-1.66,1.89-3.1,3.41-4.18,.7-.5,1.5-.76,2.34-.87,.14-.02,.28,0,.51,0-.1,.16-.14,.28-.22,.37-1.17,1.24-2.32,2.5-3.52,3.7-1.13,1.15-1.78,2.45-1.59,4.09,.02,.19,.08,.37,.12,.55,.04-.01,.07-.01,.11-.01,.02-.23,.04-.45,.07-.68,.18-1.65,.86-2.98,2.29-3.92,.46-.3,.84-.74,1.22-1.15,.49-.53,.91-1.11,1.42-1.62,.94-.96,2.67-1.2,3.87-.58,.53,.27,.87,.71,1.09,1.25,.35,.86,.83,1.64,1.36,2.4,.26,.38,.51,.78,.71,1.19,.13,.29,.18,.62,.29,1.01,.09-.14,.18-.23,.23-.34,.2-.52,.18-1.04-.11-1.51-.29-.46-.61-.9-.92-1.35-.4-.57-.78-1.16-.88-1.88-.13-.92,.6-2.31,1.47-2.64,.31-.12,.71-.14,1.04-.06,1.15,.29,1.84,1.14,2.38,2.13,.1,.18,.18,.37,.27,.55,.03,0,.06,0,.1,0-.05-.36-.04-.74-.14-1.08-.34-1.26-1.53-2.17-2.84-2.21-.14,0-.29-.01-.43-.03-.3-.05-.37-.15-.19-.41,.73-1.03,1.61-1.88,2.9-2.14,1.31-.26,2.64-.47,3.95-.69,.05,0,.09-.02,.14-.03,.53-.09,1.05-.18,1.58-.27,.94-.17,1.8,.07,2.56,.62,.83,.6,1.61,1.25,2.13,2.15,.03,.05,.07,.1,.12,.15,.02,.02,.05,.02,.17,.07-.02-.29,.02-.56-.08-.77-.15-.33-.33-.68-.6-.91-.71-.6-1.45-1.18-2.21-1.71-1.1-.76-1.03-.7-.89-1.8,.13-1.04-.31-1.77-1.15-2.38-.74-.53-1.41-1.18-2.12-1.78-.34-.29-.68-.59-1.04-.86-.16-.12-.38-.16-.57-.23-.02,.03-.05,.06-.07,.09,.07,.09,.13,.18,.2,.27,.25,.3,.53,.57,.75,.9,.54,.81,1.26,1.42,2.03,1.99,.3,.22,.59,.46,.85,.72,.4,.4,.47,.89,.29,1.42-.35,1.02-1.09,1.51-2.12,1.68-.3,.05-.59,.09-.89,.14-1.26,.21-2.52,.45-3.78,.65-.21,.03-.48,.01-.64-.1-.46-.3-.44-.81,0-1.15,.41-.33,.91-.42,1.41-.48,.11-.02,.23-.04,.34-.06,.01-.03,.01-.07,.01-.1-.24-.06-.48-.17-.72-.17-.38-.01-.76,.03-1.13,.11-.61,.14-.99,.54-1.08,1.17-.06,.42-.1,.85-.13,1.28-.04,.59-.23,1.11-.61,1.58-.36,.44-.62,.97-.94,1.44-.23,.34-.46,.69-.74,.98-.31,.32-.71,.5-1.23,.29,.13-.28,.25-.55,.38-.8,.23-.43,.25-.87,.13-1.32-.02-.09-.06-.18-.13-.36-.09,.18-.14,.28-.18,.37-.06,.14-.1,.27-.16,.4-.57,1.26-1.39,1.68-2.87,1.34-1.56-.35-2.95-.04-4.25,.83-.31,.22-.62,.43-.92,.67-.41,.31-.8,.65-1.21,.95-.1,.08-.26,.08-.39,.12-.03-.13-.12-.28-.09-.4,.13-.41,.25-.83,.45-1.2,1.28-2.36,3.13-4.07,5.7-4.95,.6-.21,1.23-.32,1.87-.22,.14,.02,.26,.13,.39,.2-.07,.13-.11,.32-.22,.39-.28,.19-.6,.33-.9,.47-.87,.39-1.75,.77-2.61,1.17-.22,.1-.4,.27-.68,.46,.14,0,.18,.01,.21,0,1.22-.38,2.43-.77,3.64-1.14,1.36-.41,1.66-1,1.16-2.32-.05-.15-.11-.31-.17-.46-.19-.5-.14-.82,.29-1.14,.44-.32,.91-.61,1.4-.82,1.18-.5,2.39-.81,3.69-.54,.15,.03,.3,.03,.42-.05,.06-.05,.12-.11,.17-.2-.04-.02-.08-.05-.11-.05-.17,0-.32-.03-.47-.07-.47-.13-.87-.41-1.25-.73-1.02-.85-2.9-.81-3.89,.09-.08,.07-.15,.16-.19,.31,.1-.04,.2-.08,.31-.12,.51-.18,1.01-.4,1.53-.54,.43-.12,.85,.02,1.24,.24,.24,.13,.26,.3,0,.42-.36,.19-.75,.33-1.13,.48-.53,.21-1.08,.4-1.61,.62-.18,.07-.35,.17-.51,.28-.72,.47-.92,.98-.72,1.82,.02,.06,.03,.13,.04,.16-.74,.2-1.47,.34-2.17,.58-.71,.25-1.38,.59-2.11,.91,0-.12-.02-.23,0-.32,.35-1.23,1-2.23,2.14-2.85,.46-.25,.95-.33,1.46-.15,.07,.02,.15,.03,.22,.04,.02-.03,.03-.06,.05-.09-.18-.12-.35-.25-.53-.35-.55-.31-.61-.46-.19-.93,1.15-1.24,2.47-2.18,4.27-2.09,.17,.01,.33,.04,.49,.07,.12,.02,.24,.05,.36,.07,.13,.03,.25,.06,.37,.09l.06-.09c-.14-.12-.27-.28-.43-.37-.34-.18-.71-.32-1.06-.49-.27-.14-.29-.24-.06-.43,.72-.61,1.55-.99,2.49-1.14,.22-.03,.4,.05,.53,.28,.26,.46,.54,.91,.85,1.34,.5,.69,1.04,1.34,1.57,2.01,.02,.02,.05,.03,.1,.06,.06-.52,0-1-.31-1.41-.25-.35-.53-.68-.8-1.02-.81-1.05-.68-1.79,.46-2.49,.67-.4,1.4-.53,2.16-.49,1.85,.11,3.54,.68,5.05,1.75,.16,.11,.31,.25,.46,.36,.9,.69,1.02,1.61,.82,2.64-.03,.11-.05,.23-.09,.42,.35-.18,.5-.44,.59-.72,.23-.64,.55-.54,.81-.09,.59,1.01,1.45,1.74,2.35,2.46,.52,.41,1,.89,1.31,1.49,.22,.44,.17,.74-.11,1.05-.13,.13-.23,.15-.4,.08-1.16-.53-2.23-1.2-3.14-2.09-.06-.06-.12-.11-.19-.16-.01,0-.03,0-.07,0,.09,.53,.33,.98,.75,1.31,.5,.39,1.05,.74,1.57,1.12,.39,.28,.77,.55,1.14,.85,.36,.29,.49,.67,.43,1.15-.1,.77-.2,1.55-.23,2.33-.01,.06-.01,.12-.01,.18-.01,.48,.07,.99,.26,1.44,.56,1.36,.36,2.52-.8,3.48,.52,.09,1.12-.17,1.43-.63,.12-.18,.22-.37,.34-.56,.11-.18,.24-.24,.42-.09,1.22,.97,2.36,2.02,3.25,3.31,.13,.19,.16,.48,.19,.72,.02,.26-.03,.53,.02,.82,.05-.06,.1-.12,.13-.2,.31-.7,.32-1.41-.1-2.06-.3-.45-.63-.89-.99-1.29-.73-.8-1.47-1.58-2.23-2.35-.74-.75-1.09-1.6-1.13-2.53-.02-.38,.01-.77,.08-1.18,.18-1.04,.28-2.1,.41-3.14,.13-1.05-.23-1.91-.94-2.66-.32-.34-.62-.7-.89-1.07-.43-.59-.38-1.02,.18-1.5,.21-.18,.46-.31,.69-.46,.12-.07,.24-.14,.43-.25-.15-.07-.22-.13-.3-.13-.5-.06-.99-.05-1.38,.35-.05,.05-.11,.09-.16,.14-.68,.55-.96,.51-1.54-.16-.56-.65-1.15-1.28-1.73-1.91-.04-.05-.09-.09-.12-.14-.43-.51-.41-.75,.18-1.03,.62-.29,1.26-.56,1.92-.73,.91-.25,1.78-.01,2.56,.49,1.41,.89,2.45,2.13,3.19,3.63,.32,.66,.25,1.31,.07,1.98-.14,.51-.26,1.02-.34,1.53-.05,.27-.04,.56,.02,.83,.04,.21,.19,.4,.29,.6,.04-.01,.08-.03,.12-.04,0-.14-.01-.28,0-.42,.02-.22,.03-.45,.1-.66,.09-.25,.28-.29,.49-.12,.08,.07,.16,.15,.23,.24,.72,.93,1.12,1.98,1.11,3.16-.01,.4-.12,.75-.4,1.04-.12,.14-.21,.14-.36,.07-.47-.22-.93-.45-1.42-.6-.45-.14-.86,.09-1.08,.5-.31,.56-.23,1.31,.19,1.78,.11,.13,.23,.25,.35,.37,.1,.11,.21,.22,.31,.32,.64,.66,1.29,1.32,1.92,1.96,0-.02,0-.13-.02-.22-.1-.67-.45-1.21-.86-1.72-.01-.01-.02-.03-.04-.04-.32-.39-.68-.75-.97-1.16-.13-.18-.19-.44-.2-.67-.02-.25,.18-.36,.42-.32,.14,.02,.29,.05,.42,.11,1.39,.63,2.6,1.48,3.55,2.59,.43,.46,.79,.98,1.11,1.54,.36,.63,.56,1.3,.64,2.02,.02,.11,.03,.22,.05,.33,0,.02,.03,.03,.06,.06,.35-.61,.41-1.24,.25-1.91-.17-.7-.5-1.33-.93-1.9-.09-.12-.18-.24-.28-.35-.47-.55-.97-1.07-1.48-1.58-.41-.42-.56-.88-.43-1.48,.28-1.33,.06-2.57-.82-3.66-.33-.39-.6-.83-.88-1.26-.26-.4-.34-.82-.17-1.29,.23-.6,.15-1.19-.18-1.75-.18-.3-.35-.6-.48-.92-.2-.45-.05-.7,.43-.74,.74-.06,1.46,.01,2.17,.21,.12,.04,.24,.07,.36,.09,.02,.01,.05-.01,.16-.1-.1-.07-.21-.12-.3-.19-.88-.71-1.89-.85-2.97-.65-.9,.17-.98,.14-1.34-.72-.21-.5-.38-1.02-.6-1.52-.16-.39-.43-.7-.84-.85-.07-.03-.15-.04-.28-.01,.1,.15,.2,.3,.29,.45,.13,.22,.29,.43,.37,.66,.04,.13-.08,.3-.12,.45-.12-.04-.26-.05-.35-.12-1.33-1.08-2.75-1.18-4.26-.43-.51,.26-1.03,.51-1.54,.78-.26,.13-.52,.16-.8,.06-.53-.19-1.05-.4-1.59-.58-.88-.3-1.77-.58-2.64-.86,.81-.68,5.29-1.59,5.83-.87-.18,.1-.34,.21-.51,.29-.32,.16-.66,.3-.97,.46-.11,.06-.19,.19-.28,.28l.06,.09c.09,0,.19,0,.29-.03,.6-.14,1.22-.27,1.82-.44,.43-.12,.49-.24,.48-.69,0-.31,.1-.41,.54-.41,.87,0,1.75,.02,2.62,.06,1.06,.04,2.02,.43,2.9,1.01,.12,.08,.23,.17,.34,.26,.31,.27,.54,.57,.38,1.02-.03,.08,0,.18,0,.32,.1-.07,.17-.1,.22-.16,.13-.18,.27-.36,.38-.55,.33-.61,.4-.66,1.01-.36,1.21,.6,2.28,1.39,3.13,2.45,.81,1.03,.71,1.69-.36,2.45-.47,.33-.98,.59-1.46,.92-.49,.32-.57,.62-.35,1.12,.03-.01,.06-.02,.08-.04,.35-.67,.96-1.01,1.63-1.29,.4-.18,.8-.36,1.19-.57,.42-.21,.63-.57,.63-1.05,0-.12,.08-.24,.12-.36,.12,.05,.27,.06,.35,.14,.65,.67,1.32,1.33,1.91,2.04,.85,1.03,1.56,2.14,2.09,3.37,.17,.41,.25,.84,.2,1.29-.03,.28-.13,.34-.32,.17-.8-.78-1.7-1.47-2.1-2.61-.31-.9-.9-1.65-1.71-2.19-.1-.06-.2-.11-.35-.11,.09,.11,.17,.23,.27,.33,.42,.46,.77,.97,.91,1.58,.03,.15,.02,.36-.07,.45-.06,.07-.28,.03-.42,0-.57-.16-1.13-.4-1.7-.5-.37-.07-.79,0-1.15,.11-.48,.15-.62,.54-.46,1.01,.14,.41,.33,.65,.69,.79-.05-.18-.08-.33-.12-.48-.13-.49,.13-.84,.65-.81,.26,.02,.53,.07,.78,.15,1.95,.69,3.5,1.91,4.68,3.6,.47,.67,.36,1.38,.11,2.09-.04,.11-.13,.22-.21,.31-.24,.27-.42,.26-.63-.06-.09-.14-.17-.29-.27-.46-.19,.82-.02,1.35,.55,1.81,.04,.04,.08,.07,.12,.1,.01,.01,.02,.01,.03,.02,.29,.21,.52,.4,.7,.6,.48,.55,.55,1.13,.26,2.08-.17,.55-.44,1.08-.72,1.59-.06,.11-.12,.21-.18,.32-.36,.67-.8,1.29-1.2,1.94-.35,.6-.32,1.26-.26,1.92,.01,.05,.05,.1,.12,.22,.05-.22,.06-.39,.13-.53,.32-.59,.6-1.22,.98-1.77,.43-.61,1.03-.55,1.41,.09,.67,1.1,.66,2.26,.19,3.43Zm1.74-2.99c-.02,.06-.06,.11-.09,.16-.04,.07-.08,.14-.13,.2-.14,.19-.33,.18-.46-.01-.12-.17-.21-.35-.28-.54-.11-.3-.25-.56-.45-.79-.07-.08-.15-.15-.23-.22-.54-.46-.61-.75-.3-1.37,.4-.79,.52-1.61,.49-2.48-.02-.33-.01-.67-.01-1.03,.56,.05,.98,.29,1.29,.72,.35,.48,.58,1.02,.64,1.61,.12,1.22,.08,2.43-.39,3.58-.02,.04-.04,.08-.05,.12-.01,.02-.02,.03-.03,.05Z"/><path class="e" d="M105.44,149.65c-.38-.64-.98-.7-1.41-.09-.38,.55-.66,1.18-.98,1.77-.07,.14-.08,.31-.13,.53-.07-.12-.11-.17-.12-.22-.06-.66-.09-1.32,.26-1.92,.4-.65,.84-1.27,1.2-1.94,.06-.11,.12-.21,.18-.32,.28-.51,.55-1.04,.72-1.59,.29-.95,.22-1.53-.26-2.08-.18-.2-.41-.39-.7-.6-.01-.01-.02-.01-.03-.02-.04-.03-.08-.06-.12-.1-.57-.46-.74-.99-.55-1.81,.1,.17,.18,.32,.27,.46,.21,.32,.39,.33,.63,.06,.08-.09,.17-.2,.21-.31,.25-.71,.36-1.42-.11-2.09-1.18-1.69-2.73-2.91-4.68-3.6-.25-.08-.52-.13-.78-.15-.52-.03-.78,.32-.65,.81,.04,.15,.07,.3,.12,.48-.36-.14-.55-.38-.69-.79-.16-.47-.02-.86,.46-1.01,.36-.11,.78-.18,1.15-.11,.57,.1,1.13,.34,1.7,.5,.14,.04,.36,.08,.42,0,.09-.09,.1-.3,.07-.45-.14-.61-.49-1.12-.91-1.58-.1-.1-.18-.22-.27-.33,.15,0,.25,.05,.35,.11,.81,.54,1.4,1.29,1.71,2.19,.4,1.14,1.3,1.83,2.1,2.61,.19,.17,.29,.11,.32-.17,.05-.45-.03-.88-.2-1.29-.53-1.23-1.24-2.34-2.09-3.37-.59-.71-1.26-1.37-1.91-2.04-.08-.08-.23-.09-.35-.14-.04,.12-.12,.24-.12,.36,0,.48-.21,.84-.63,1.05-.39,.21-.79,.39-1.19,.57-.67,.28-1.28,.62-1.63,1.29-.02,.02-.05,.03-.08,.04-.22-.5-.14-.8,.35-1.12,.48-.33,.99-.59,1.46-.92,1.07-.76,1.17-1.42,.36-2.45-.85-1.06-1.92-1.85-3.13-2.45-.61-.3-.68-.25-1.01,.36-.11,.19-.25,.37-.38,.55-.05,.06-.12,.09-.22,.16,0-.14-.03-.24,0-.32,.16-.45-.07-.75-.38-1.02-.11-.09-.22-.18-.34-.26-.88-.58-1.84-.97-2.9-1.01-.87-.04-1.75-.06-2.62-.06-.44,0-.54,.1-.54,.41,.01,.45-.05,.57-.48,.69-.6,.17-1.22,.3-1.82,.44-.1,.03-.2,.02-.29,.03l-.06-.09c.09-.09,.17-.22,.28-.28,.31-.16,.65-.3,.97-.46,.17-.08,.33-.19,.51-.29-.54-.72-5.02,.19-5.83,.87,.87,.28,1.76,.56,2.64,.86,.54,.18,1.06,.39,1.59,.58,.28,.1,.54,.07,.8-.06,.51-.27,1.03-.52,1.54-.78,1.51-.75,2.93-.65,4.26,.43,.09,.07,.23,.08,.35,.12,.04-.15,.16-.32,.12-.45-.08-.23-.24-.44-.37-.66-.09-.15-.19-.3-.29-.45,.13-.03,.21-.02,.28,.01,.41,.15,.68,.46,.84,.85,.22,.5,.39,1.02,.6,1.52,.36,.86,.44,.89,1.34,.72,1.08-.2,2.09-.06,2.97,.65,.09,.07,.2,.12,.3,.19-.11,.09-.14,.11-.16,.1-.12-.02-.24-.05-.36-.09-.71-.2-1.43-.27-2.17-.21-.48,.04-.63,.29-.43,.74,.13,.32,.3,.62,.48,.92,.33,.56,.41,1.15,.18,1.75-.17,.47-.09,.89,.17,1.29,.28,.43,.55,.87,.88,1.26,.88,1.09,1.1,2.33,.82,3.66-.13,.6,.02,1.06,.43,1.48,.51,.51,1.01,1.03,1.48,1.58,.1,.11,.19,.23,.28,.35,.43,.57,.76,1.2,.93,1.9,.16,.67,.1,1.3-.25,1.91-.03-.03-.05-.04-.06-.06-.02-.11-.03-.22-.05-.33-.08-.72-.28-1.39-.64-2.02-.32-.56-.68-1.08-1.11-1.54-.95-1.11-2.16-1.96-3.55-2.59-.13-.06-.28-.09-.42-.11-.24-.04-.44,.07-.42,.32,0,.23,.07,.49,.2,.67,.29,.41,.65,.77,.97,1.16,.02,0,.03,.03,.04,.04,.41,.51,.76,1.05,.86,1.72,.02,.09,.02,.2,.02,.22-.63-.64-1.28-1.3-1.92-1.96-.1-.1-.21-.21-.31-.32-.12-.12-.24-.24-.35-.37-.42-.47-.5-1.22-.19-1.78,.22-.41,.63-.64,1.08-.5,.49,.15,.95,.38,1.42,.6,.15,.07,.24,.07,.36-.07,.28-.29,.39-.64,.4-1.04,.01-1.18-.39-2.23-1.11-3.16-.07-.09-.15-.17-.23-.24-.21-.17-.4-.13-.49,.12-.07,.21-.08,.44-.1,.66-.01,.14,0,.28,0,.42-.04,.01-.08,.03-.12,.04-.1-.2-.25-.39-.29-.6-.06-.27-.07-.56-.02-.83,.08-.51,.2-1.02,.34-1.53,.18-.67,.25-1.32-.07-1.98-.74-1.5-1.78-2.74-3.19-3.63-.78-.5-1.65-.74-2.56-.49-.66,.17-1.3,.44-1.92,.73-.59,.28-.61,.52-.18,1.03,.03,.05,.08,.09,.12,.14,.58,.63,1.17,1.26,1.73,1.91,.58,.67,.86,.71,1.54,.16,.05-.05,.11-.09,.16-.14,.39-.4,.88-.41,1.38-.35,.08,0,.15,.06,.3,.13-.19,.11-.31,.18-.43,.25-.23,.15-.48,.28-.69,.46-.56,.48-.61,.91-.18,1.5,.27,.37,.57,.73,.89,1.07,.71,.75,1.07,1.61,.94,2.66-.13,1.04-.23,2.1-.41,3.14-.07,.41-.1,.8-.08,1.18,.04,.93,.39,1.78,1.13,2.53,.76,.77,1.5,1.55,2.23,2.35,.36,.4,.69,.84,.99,1.29,.42,.65,.41,1.36,.1,2.06-.03,.08-.08,.14-.13,.2-.05-.29,0-.56-.02-.82-.03-.24-.06-.53-.19-.72-.89-1.29-2.03-2.34-3.25-3.31-.18-.15-.31-.09-.42,.09-.12,.19-.22,.38-.34,.56-.31,.46-.91,.72-1.43,.63,1.16-.96,1.36-2.12,.8-3.48-.19-.45-.27-.96-.26-1.44,0-.06,0-.12,.01-.18,.03-.78,.13-1.56,.23-2.33,.06-.48-.07-.86-.43-1.15-.37-.3-.75-.57-1.14-.85-.52-.38-1.07-.73-1.57-1.12-.42-.33-.66-.78-.75-1.31,.04,0,.06,0,.07,0,.07,.05,.13,.1,.19,.16,.91,.89,1.98,1.56,3.14,2.09,.17,.07,.27,.05,.4-.08,.28-.31,.33-.61,.11-1.05-.31-.6-.79-1.08-1.31-1.49-.9-.72-1.76-1.45-2.35-2.46-.26-.45-.58-.55-.81,.09-.09,.28-.24,.54-.59,.72,.04-.19,.06-.31,.09-.42,.2-1.03,.08-1.95-.82-2.64-.15-.11-.3-.25-.46-.36-1.51-1.07-3.2-1.64-5.05-1.75-.76-.04-1.49,.09-2.16,.49-1.14,.7-1.27,1.44-.46,2.49,.27,.34,.55,.67,.8,1.02,.3,.41,.37,.89,.31,1.41-.05-.03-.08-.04-.1-.06-.53-.67-1.07-1.32-1.57-2.01-.31-.43-.59-.88-.85-1.34-.13-.23-.31-.31-.53-.28-.94,.15-1.77,.53-2.49,1.14-.23,.19-.21,.29,.06,.43,.35,.17,.72,.31,1.06,.49,.16,.09,.29,.25,.43,.37l-.06,.09c-.12-.03-.24-.06-.37-.09-.12-.02-.24-.05-.36-.07-.16-.03-.32-.06-.49-.07-1.8-.09-3.12,.85-4.27,2.09-.42,.47-.36,.62,.19,.93,.18,.1,.35,.23,.53,.35-.02,.03-.03,.06-.05,.09-.07-.01-.15-.02-.22-.04-.51-.18-1-.1-1.46,.15-1.14,.62-1.79,1.62-2.14,2.85-.02,.09,0,.2,0,.32,.73-.32,1.4-.66,2.11-.91,.7-.24,1.43-.38,2.17-.58-.01-.03-.02-.1-.04-.16-.2-.84,0-1.35,.72-1.82,.16-.11,.33-.21,.51-.28,.53-.22,1.08-.41,1.61-.62,.38-.15,.77-.29,1.13-.48,.26-.12,.24-.29,0-.42-.39-.22-.81-.36-1.24-.24-.52,.14-1.02,.36-1.53,.54-.11,.04-.21,.08-.31,.12,.04-.15,.11-.24,.19-.31,.99-.9,2.87-.94,3.89-.09,.38,.32,.78,.6,1.25,.73,.15,.04,.3,.07,.47,.07,.03,0,.07,.03,.11,.05-.05,.09-.11,.15-.17,.2-.12,.08-.27,.08-.42,.05-1.3-.27-2.51,.04-3.69,.54-.49,.21-.96,.5-1.4,.82-.43,.32-.48,.64-.29,1.14,.06,.15,.12,.31,.17,.46,.5,1.32,.2,1.91-1.16,2.32-1.21,.37-2.42,.76-3.64,1.14-.03,.01-.07,0-.21,0,.28-.19,.46-.36,.68-.46,.86-.4,1.74-.78,2.61-1.17,.3-.14,.62-.28,.9-.47,.11-.07,.15-.26,.22-.39-.13-.07-.25-.18-.39-.2-.64-.1-1.27,.01-1.87,.22-2.57,.88-4.42,2.59-5.7,4.95-.2,.37-.32,.79-.45,1.2-.03,.12,.06,.27,.09,.4,.13-.04,.29-.04,.39-.12,.41-.3,.8-.64,1.21-.95,.3-.24,.61-.45,.92-.67,1.3-.87,2.69-1.18,4.25-.83,1.48,.34,2.3-.08,2.87-1.34,.06-.13,.1-.26,.16-.4,.04-.09,.09-.19,.18-.37,.07,.18,.11,.27,.13,.36,.12,.45,.1,.89-.13,1.32-.13,.25-.25,.52-.38,.8,.52,.21,.92,.03,1.23-.29,.28-.29,.51-.64,.74-.98,.32-.47,.58-1,.94-1.44,.38-.47,.57-.99,.61-1.58,.03-.43,.07-.86,.13-1.28,.09-.63,.47-1.03,1.08-1.17,.37-.08,.75-.12,1.13-.11,.24,0,.48,.11,.72,.17,0,.03,0,.07-.01,.1-.11,.02-.23,.04-.34,.06-.5,.06-1,.15-1.41,.48-.44,.34-.46,.85,0,1.15,.16,.11,.43,.13,.64,.1,1.26-.2,2.52-.44,3.78-.65,.3-.05,.59-.09,.89-.14,1.03-.17,1.77-.66,2.12-1.68,.18-.53,.11-1.02-.29-1.42-.26-.26-.55-.5-.85-.72-.77-.57-1.49-1.18-2.03-1.99-.22-.33-.5-.6-.75-.9-.07-.09-.13-.18-.2-.27,.02-.03,.05-.06,.07-.09,.19,.07,.41,.11,.57,.23,.36,.27,.7,.57,1.04,.86,.71,.6,1.38,1.25,2.12,1.78,.84,.61,1.28,1.34,1.15,2.38-.14,1.1-.21,1.04,.89,1.8,.76,.53,1.5,1.11,2.21,1.71,.27,.23,.45,.58,.6,.91,.1,.21,.06,.48,.08,.77-.12-.05-.15-.05-.17-.07-.05-.05-.09-.1-.12-.15-.52-.9-1.3-1.55-2.13-2.15-.76-.55-1.62-.79-2.56-.62-.53,.09-1.05,.18-1.58,.27-.05,.01-.09,.02-.14,.03-1.31,.22-2.64,.43-3.95,.69-1.29,.26-2.17,1.11-2.9,2.14-.18,.26-.11,.36,.19,.41,.14,.02,.29,.03,.43,.03,1.31,.04,2.5,.95,2.84,2.21,.1,.34,.09,.72,.14,1.08-.04,0-.07,0-.1,0-.09-.18-.17-.37-.27-.55-.54-.99-1.23-1.84-2.38-2.13-.33-.08-.73-.06-1.04,.06-.87,.33-1.6,1.72-1.47,2.64,.1,.72,.48,1.31,.88,1.88,.31,.45,.63,.89,.92,1.35,.29,.47,.31,.99,.11,1.51-.05,.11-.14,.2-.23,.34-.11-.39-.16-.72-.29-1.01-.2-.41-.45-.81-.71-1.19-.53-.76-1.01-1.54-1.36-2.4-.22-.54-.56-.98-1.09-1.25-1.2-.62-2.93-.38-3.87,.58-.51,.51-.93,1.09-1.42,1.62-.38,.41-.76,.85-1.22,1.15-1.43,.94-2.11,2.27-2.29,3.92-.03,.23-.05,.45-.07,.68-.04,0-.07,0-.11,.01-.04-.18-.1-.36-.12-.55-.19-1.64,.46-2.94,1.59-4.09,1.2-1.2,2.35-2.46,3.52-3.7,.08-.09,.12-.21,.22-.37-.23,0-.37-.02-.51,0-.84,.11-1.64,.37-2.34,.87-1.52,1.08-2.6,2.52-3.41,4.18-.63,1.29-1.06,2.63-1,4.09,.06,1.45,1.06,2.88,2.34,3.33,.59,.21,1.15,.2,1.68-.15,.36-.24,.5-.55,.38-.96-.29-1.03-.03-1.94,.68-2.71,.46-.5,.97-.96,1.5-1.4,.68-.56,1.07-1.24,1.11-2.11,.01-.3,.03-.6,.06-.89,.01-.11,.04-.21,.08-.37,.36,.29,.49,.63,.55,.99,.04,.25,.05,.49,.07,.74,.03,.37,.16,.45,.5,.31,.21-.08,.41-.19,.62-.29,.51-.24,1.03-.28,1.54-.02,.3,.16,.58,.14,.84-.05,.25-.2,.48-.44,.71-.66,.07-.07,.12-.15,.21-.27,.07,.52-.04,.93-.26,1.33-.07,.12-.1,.31-.05,.42,.39,.78,.79,1.55,1.21,2.32,.19,.34,.41,.67,.64,.97,.28,.35,.65,.43,1.06,.24,.29-.13,.56-.33,.86-.46,.33-.16,.68-.3,1.03-.39,.22-.06,.46,.01,.59,.31-.73,0-1.28,.39-1.85,.73-.3,.17-.61,.35-.93,.49-.44,.19-.85,.08-1.18-.25-.16-.15-.3-.32-.41-.5-.27-.44-.5-.9-.76-1.34-.28-.48-.56-.96-.88-1.41-.49-.66-1.16-.88-1.96-.69-.95,.23-1.77,.71-2.56,1.25-.73,.48-1.37,1.04-1.83,1.8-.51,.83-.62,2.19,.54,3.01,.2,.14,.4,.29,.61,.42,.64,.39,1.31,.74,1.91,1.18,.38,.28,.73,.65,.97,1.05,.4,.64,.03,1.57-.7,1.91,.48-1.12-.05-1.86-.91-2.44-.63-.43-1.3-.79-1.95-1.18-.66-.39-1.31-.47-2.04-.1-.77,.4-1.57,.29-2.34-.1-.27-.14-.54-.29-.8-.46-.2-.13-.33-.08-.47,.09-.19,.22-.24,.47-.21,.75,.26,2.09,1.42,3.63,3.03,4.89,.12,.09,.28,.17,.44,.2,.14,.03,.29-.01,.44-.02-.02-.15,0-.31-.06-.44-.15-.36-.39-.7-.49-1.08-.13-.45-.37-.8-.66-1.13-.19-.22-.36-.45-.53-.68-.07-.09-.1-.21-.14-.31,.49,.18,.9,.5,1.37,.6,.48,.1,1-.01,1.56-.03-.24,.24-.45,.46-.68,.67-.25,.22-.32,.48-.26,.81,.12,.72,.56,1.22,1.09,1.69,1.28,1.14,4.2,1.27,5.68,.44,1.22-.68,2.21-1.56,2.66-2.93,.09-.27,.13-.55,.2-.85,.29,.19,.44,.42,.44,.74,0,.22,0,.44,0,.65,0,.26,.15,.38,.39,.36,.55-.03,1.08-.14,1.54-.48,.51-.37,.76-.88,.67-1.52-.13-.83-.63-1.36-1.4-1.6-.93-.29-1.88-.53-2.82-.79-1.05-.28-2.06-.62-2.9-1.36-.17-.15-.44-.21-.65-.32-.3-.14-.58-.3-.87-.45,.01-.03,.02-.07,.04-.1h.35c.31-.01,.64,.01,.95-.05,.69-.13,1.04-.54,1.11-1.24,0-.07,.02-.14,.03-.22,.32,.12,.35,.39,.35,.64-.01,.4-.04,.8-.06,1.2-.02,.4,.07,.58,.45,.71,.43,.15,.88,.27,1.33,.38,.77,.19,1.56,.35,2.33,.55,.92,.24,1.66,.76,2.18,1.56,.87,1.35,.36,2.92-1.15,3.47-.35,.13-.72,.21-1.09,.32-.15,.05-.29,.11-.44,.16-.01,.04-.02,.08-.02,.12,.36,.21,.71,.47,1.1,.63,1.17,.49,2.41,.64,3.68,.6,1.7-.04,2.77-1,3.51-2.41,.34-.66,.06-1.25-.67-1.41-.47-.11-.98-.15-1.46-.12-.8,.06-1.18,.5-1.24,1.3,0,.1-.03,.19-.05,.28-.03,0-.06,0-.09,.01-.17-.32-.22-.66-.14-1.02,.18-.78,.93-1.36,1.81-1.41,.81-.05,1.6,.11,2.35,.39,.75,.28,1.33,.03,1.84-.48,.99-.99,1.21-2.26,.59-3.6-.31-.67-.65-1.33-1-1.98-.32-.62-.46-1.26-.51-1.95-.03-.53,.22-.84,.63-1.07,.46-.25,1.19-.12,1.48,.27-.2,.03-.39,.05-.59,.07-.37,.04-.58,.25-.7,.6-.12,.38,0,.72,.15,1.04,.58,1.32,1.2,2.62,1.57,4.01,.14,.54,.55,.8,1.06,.85,.61,.07,1.25,.12,1.86,.06,1.05-.09,2.07-.35,2.91-1.05,1.01-.85,1.15-1.41,.61-2.61-.25-.57-.3-1.17-.21-1.78,.02-.12,.08-.23,.12-.34,.14,.27,.19,.54,.3,.79,.21,.47,.4,.96,.67,1.38,.31,.47,.74,.57,1.28,.38,.26-.1,.53-.23,.76-.39,.96-.69,1.56-1.61,1.8-2.78,.03-.19,.08-.38,.13-.6,.28,.29,.4,.57,.36,.91-.02,.19-.05,.38-.06,.58-.01,.28,.09,.38,.35,.27,.31-.14,.62-.3,.88-.51,1.13-.9,2.01-2.01,2.66-3.3,.06-.11,.12-.22,.18-.32,.02,.01,.05,.03,.07,.05-.26,2.16-1.55,3.62-3.29,4.73,.28,.28,.6,.52,.81,.83,.24,.34,.11,.75,.02,1.19-.17-.25-.28-.47-.44-.65-.18-.22-.37-.45-.6-.6-.59-.37-1.19-.34-1.76,.09-.64,.49-1.29,.96-2.06,1.2-.72,.24-1.15,.76-1.52,1.37-.16,.27-.11,.45,.14,.62,.31,.21,.64,.41,.92,.66,.65,.6,.69,1.71,.12,2.39-.01,.01-.05,.01-.12,.03,.02-.27,.01-.53,.05-.78,.06-.45-.12-.79-.47-1.04-.35-.24-.72-.45-1.08-.69-.17-.1-.31-.1-.49-.01-1.04,.57-2.16,.81-3.34,.83-.75,.01-1.5,.05-2.25,.08-.37,.01-.6,.21-.76,.54-.35,.76-.92,1.29-1.71,1.58-.38,.14-.69,.37-.89,.73-.22,.42-.09,.86,.34,1.06,.16,.08,.35,.12,.53,.13,1.11,.11,2-.35,2.81-1.04,.26-.23,.53-.47,.79-.71,.02,.02,.04,.03,.06,.05-.05,.1-.11,.21-.17,.31-.76,1.28-1.92,1.99-3.37,2.16-1.16,.13-2.23,.4-3.22,1.07-.75,.52-.79,.45-.61,1.37,.05,.21,.07,.45,0,.63-.36,.9-1.53,1.24-2.38,.71,.13-.03,.24-.04,.35-.07,.33-.12,.68-.19,.97-.36,.4-.23,.44-.62,.22-1.02-.21-.36-.56-.47-.93-.53-.88-.15-1.77-.27-2.64-.46-.97-.2-1.83-.71-2.7-1.17-.59-.32-.97-.06-.92,.61,.12,1.69,1.04,2.89,2.37,3.85,.03,.02,.07,.05,.1,.05,.11,.02,.22,.02,.32,.03,.01-.1,.04-.21,.01-.3-.09-.27-.19-.54-.33-.79-.26-.47-.07-.86,.19-1.29,.16,.3,.29,.57,.44,.84,.48,.92,1.15,1.65,2.09,2.11,.98,.49,2.02,.56,3.09,.4,1.13-.17,2.2-.52,3.1-1.26,.43-.36,.74-.8,.85-1.36,.08-.38-.06-.61-.45-.64-.27-.03-.55-.01-.82,.04-.5,.11-.99,.25-1.53,.39,.45-.5,.95-.84,1.57-.92,.95-.13,1.91-.27,2.87-.31,1.64-.06,2.96-.67,3.93-2.01,.19-.27,.36-.55,.57-.81,.35-.42,.71-.84,1.08-1.25,.1-.11,.26-.17,.39-.25,.02,.02,.04,.05,.07,.07-.07,.08-.13,.17-.2,.25-.07,.08-.15,.16-.22,.26-.27,.4-.16,.76,.31,.87,.29,.07,.62,.08,.91,.05,.95-.11,1.76-.56,2.47-1.18,.91-.79,1.57-1.74,1.77-2.97,.12-.75-.57-1.28-1.23-1.08-.15,.05-.31,.08-.46,.11-.01-.02-.02-.05-.03-.07,.38-.29,.77-.54,1.24-.68,.4-.12,.73,0,.97,.34,.12,.16,.22,.34,.33,.52,.2,.32,.48,.45,.86,.38,.7-.14,1.28-.52,1.8-.96,.69-.57,1.33-1.19,2-1.79,.14-.12,.3-.23,.45-.34,.02,.02,.04,.04,.07,.05-.04,.13-.06,.25-.11,.37-.24,.61-.61,1.13-1.07,1.6-.94,.96-2.08,1.61-3.36,1.98-.77,.22-1.18,.78-1.48,1.45-.05,.12-.04,.31,.02,.43,.15,.3,.57,.47,.9,.36,.26-.08,.52-.17,.77-.29,.05-.02,.1-.05,.15-.07,1.39-.7,2.63-1.61,3.71-2.72,.16-.16,.31-.32,.46-.49,.56-.63,1.05-1.32,1.37-2.11,.47-1.17,.48-2.33-.19-3.43Zm-13.39,3.01c-1.01-.36-1.83,.06-2.62,.63-.02-.02-.04-.05-.06-.07,.04-.11,.06-.22,.11-.32,.15-.23,.31-.46,.46-.69,.15-.22,.17-.45,.07-.7-.65-1.58-1.6-2.93-3-3.95-.49-.35-1.04-.52-1.64-.53-.17,0-.35,0-.52-.01-1.61-.07-2.62,.81-3.31,2.13-.15,.28-.17,.66-.17,.98,.01,.73,.09,1.46-.13,2.17-.3,1.01-1,1.68-1.86,2.21-.03,.03-.09,.03-.18-.01,.1-.13,.19-.27,.31-.38,.77-.7,1.11-1.58,1.22-2.59,.09-.86-.17-1.54-.92-2-.35-.21-.72-.4-1.09-.55-.65-.26-1.18-.66-1.6-1.22-.48-.64-.99-1.27-1.54-1.97,.26,.09,.5,.13,.67,.26,.46,.34,.93,.68,1.32,1.09,.72,.74,1.51,1.36,2.46,1.76,.54,.23,.67,.18,1-.29,.37-.52,.76-1.04,1.21-1.5,.38-.39,.48-.79,.32-1.29-.22-.68-.61-1.27-1.06-1.82-.14-.17-.28-.34-.42-.52,.02-.02,.04-.05,.06-.07,.23,.13,.48,.24,.7,.4,.57,.41,1.02,.94,1.27,1.59,.26,.71,.73,1.03,1.48,.97,.23-.02,.45-.01,.68-.01,.44,0,.74-.2,.93-.59,.35-.71,.47-1.46,.34-2.25-.06-.42-.31-.76-.66-.95-.74-.41-1.49-.79-2.25-1.15-.69-.32-1.41-.6-2.11-.93-.26-.13-.48-.33-.71-.5,.01-.02,.03-.05,.04-.07,.3,.1,.6,.23,.9,.32,1.05,.3,2.1,.57,3.15,.88,.39,.11,.77,.27,1.14,.44,1.09,.54,1.58,1.45,1.48,2.66-.05,.65-.23,1.25-.56,1.81-.12,.19-.1,.31,.08,.46,.53,.47,1.05,.95,1.56,1.44,.82,.79,1.45,1.71,1.83,2.78,.2,.52,.46,.97,.98,1.25,.26,.13,.46,.38,.69,.58-.02,.04-.04,.08-.05,.12Zm10.07-8.48c-.01,.1-.02,.2-.05,.3-.04,.2-.1,.41-.19,.61-.09,.2-.26,.38-.39,.57-.03-.02-.06-.03-.09-.05,.05-.3,.11-.6,.14-.9,.04-.33,.03-.67-.03-1-.04-.21-.09-.41-.15-.61-.05-.16-.11-.31-.18-.47-.08-.17-.16-.34-.26-.51-.09-.16-.19-.32-.3-.47-.45-.62-1.03-1.12-1.67-1.4-.05-.02-.11-.03-.15-.06-.1-.07-.19-.16-.29-.24,.13-.06,.26-.19,.39-.19,.47,.04,.94,.11,1.4,.17,.08-.38,.14-.84,.27-1.29,.13-.44,.38-.82,.95-1-.09,.2-.13,.33-.19,.45-.3,.57-.37,1.18-.2,1.79,.28,1.01,.59,2.01,.88,3.01,.04,.14,.07,.29,.09,.43,.03,.14,.04,.28,.04,.42,.01,.15,0,.3-.02,.44Z"/><path class="e" d="M63.17,131.07c-.13,.21-.24,.42-.38,.6-.31,.43-.98,.61-1.46,.41-.23-.09-.29-.26-.17-.47,.1-.16,.22-.3,.35-.43,1.73-1.67,3.74-2.83,6.1-3.35,.41-.09,.83-.1,1.25-.14,.1,0,.2,.02,.3,.03l.03,.08c-.16,.08-.31,.16-.47,.24-.65,.33-1.31,.64-1.93,1.01-.46,.28-.87,.64-1.12,1.21,.08-.04,.12-.05,.15-.07,.65-.59,1.45-.88,2.23-1.21,.74-.31,1.45-.67,2.15-1.05,.49-.26,.97-.3,1.49-.17,.28,.07,.55,.15,.84,.23-.11-.29-.28-.43-.79-.69-.31-.16-.63-.3-1.02-.48,.28-.17,.5-.35,.74-.44,1.07-.43,2.19-.55,3.33-.41,.27,.04,.55,.17,.79,.32,.31,.19,.3,.42-.03,.58-.3,.15-.63,.24-.95,.34-.09,.03-.19,.04-.37,.08,.37,.32,.74,.38,1.13,.35,.16-.01,.32-.08,.46-.15,.87-.48,1.75-.93,2.81-.76v-.1c-.08-.05-.18-.13-.28-.15-.49-.11-.98-.21-1.47-.32-.14-.04-.27-.14-.41-.21,.11-.12,.19-.3,.32-.36,.72-.36,1.51-.47,2.3-.48,.76,0,1.52,.05,2.27,.11,.2,.02,.38,.19,.57,.29-.16,.13-.29,.3-.47,.39-.78,.39-1.56,.77-2.35,1.14-.19,.09-.4,.15-.61,.19-.66,.13-1.26,.39-1.78,.81-.35,.28-.74,.39-1.17,.49-.94,.22-1.89,.21-2.84,.23-.58,.01-1.18,.16-1.74,.35-.63,.21-1.09,.78-1.29,1.39,.73-.46,1.37-1.07,2.28-1.09,.09,0,.17,.03,.34,.06-.26,.22-.46,.39-.65,.57-.3,.29-.59,.6-.89,.89-.15,.15-.32,.29-.49,.42-.42,.32-.88,.61-1.28,.95-.39,.33-.81,.59-1.31,.7-.58,.13-1.07,.4-1.32,1.02,.17-.06,.34-.14,.52-.18,.2-.05,.46-.28,.6-.04,.07,.11-.09,.42-.22,.57-.61,.67-1.24,1.32-1.87,1.96-.09,.09-.32,.19-.38,.15-.13-.09-.28-.28-.29-.43-.05-.82,.08-1.61,.6-2.27,.32-.41,.69-.78,1.04-1.17,.43-.49,.87-.98,1.29-1.48,.12-.15,.18-.35,.3-.6-.12,.04-.16,.04-.19,.06-.77,.66-1.54,1.32-2.31,1.98-.75,.64-1.23,1.43-1.34,2.42-.03,.25-.15,.4-.37,.52-.73,.39-1.45,.81-2.18,1.2-.2,.1-.43,.14-.65,.2,0-.23-.03-.48,.03-.7,.08-.3,.22-.6,.35-.88,.18-.39,.49-.56,.93-.48,.1,.02,.21,.02,.33,0-.44-.46-.96-.72-1.59-.69-1.07,.06-1.8,.69-2.45,1.44l.04,.08c.13-.05,.27-.09,.4-.15,.33-.14,.64-.32,.98-.44,.44-.15,.72,.13,.6,.58-.05,.18-.15,.34-.2,.51-.12,.39-.2,.79-.35,1.17-.2,.52-.42,1.04-.68,1.54-.18,.35-.43,.65-.63,.99-.38,.65-.46,1.34-.19,2.04,.16,.42,.35,.83,.53,1.24,.31,.69,.25,1.02-.3,1.54-.28,.27-.56,.54-.85,.81-.6,.55-.8,1.25-.75,2.04,.02,.31,.09,.61,.08,.92,0,.2-.07,.43-.19,.58-.26,.34-.48,.68-.52,1.22,.64-.67,1.28-1.11,2.17-.54l.03-.11c-.1-.14-.18-.3-.3-.42-1.04-1.02-.76-2.47,.18-3.29,.29-.25,.54-.53,.81-.8,.46-.46,.56-1.02,.42-1.62-.08-.36-.21-.71-.36-1.04-.51-1.12-.35-2.13,.45-3.06,.93-1.09,2.04-1.96,3.28-2.68,.49-.28,.54-.24,.79,.25,.15,.3,.33,.59,.51,.87,.13,.2,.18,.42,.03,.6-.68,.81-1.36,1.61-2.08,2.39-.22,.24-.58,.06-.57-.28,0-.32,.11-.64,.2-.95,.06-.19,.18-.36,.28-.56-.47,.1-.97,.7-1.12,1.29-.13,.51,0,1,.15,1.48,.12,.39,.07,.72-.08,1.1-.2,.48-.33,.99-.46,1.49-.22,.85-.4,1.72-.62,2.57-.29,1.15-.59,2.3-.89,3.45,0,.03-.01,.06-.02,.09-.26,1.26-.79,1.62-2.04,1.32-.43-.1-.86-.29-1.23-.53-.61-.41-.97-1-1.01-1.77-.09-1.42,.12-2.75,.78-4.02,.36-.68,.66-1.39,.95-2.1,.22-.53,.32-1.08,.2-1.66-.03-.14-.05-.29-.12-.41-.2-.37-.49-.66-.93-.66-.45,0-.7,.3-.87,.68-.23,.52-.24,1.06-.12,1.6h.09c.04-.13,.06-.28,.12-.41,.12-.28,.23-.57,.39-.82,.14-.22,.41-.31,.62-.18,.14,.08,.25,.31,.28,.49,.08,.42-.02,.84-.21,1.22-.39,.77-.79,1.53-1.18,2.3-.7,1.38-.96,2.84-.62,4.36,.35,1.57,1.36,2.39,3.05,2.57,.37,.04,.73,.1,1.09,.2,.5,.15,.78,.59,.76,1.11,0,.31-.12,.39-.4,.29-.26-.09-.51-.22-.77-.31-.41-.14-1.06,.18-1.24,.56,.28,.02,.58,.01,.86,.08,.82,.19,1.32,.75,1.6,1.52,.31,.87,.61,1.74,.91,2.61,.03,.09,.06,.18,.07,.27,.04,.29-.04,.54-.27,.71-.22,.17-.46,.09-.66-.05-.82-.54-1.35-1.31-.9-2.34,.03-.07,.05-.15,.07-.24-.55,.34-.8,1-.65,1.62,.05,.22,.11,.44,.11,.66,0,.39-.2,.52-.56,.38-.87-.32-1.58-.87-2.21-1.53-.73-.77-1.28-1.66-1.71-2.62-.25-.55-.27-1.14-.21-1.72,.03-.29,.18-.36,.38-.14,.72,.79,1.42,1.59,2.1,2.41,.14,.17,.16,.43,.26,.73,.06-.15,.11-.24,.12-.34,.03-.59-.05-1.15-.46-1.62-.51-.59-1.03-1.17-1.53-1.77-.44-.53-.89-1.05-1.26-1.63-.82-1.29-.68-2.71,.32-3.87,.12-.14,.23-.29,.36-.42,.47-.47,.37-.99,.14-1.58-.14,.27-.24,.5-.38,.71-.07,.11-.2,.18-.3,.27-.08-.12-.24-.24-.24-.36,0-.65-.02-1.31,.06-1.96,.12-.93,.49-1.8,1.11-2.5,1.02-1.16,2.1-2.28,3.16-3.41,.12-.13,.28-.22,.47-.3-.15,.75-.18,1.47,.18,2.17,.18-.65,.36-1.28,.53-1.92,.03-.12,.02-.25,0-.37-.08-.71-.54-.98-1.13-.59-.51,.33-.95,.78-1.41,1.18-.15,.13-.29,.27-.46,.44-.13-.37-.07-.68,.08-.95,.29-.53,.57-1.08,.96-1.53,.67-.77,1.39-1.52,2.15-2.19,.88-.78,1.95-1.2,3.14-1.29,.27-.02,.55-.09,.8-.19,.72-.28,.94-.84,.66-1.59Z"/><path class="e" d="M92.77,162.18c-.1,.26-.17,.49-.28,.71-.16,.31-.3,.64-.52,.9-1.42,1.63-3.21,2.59-5.37,2.82-.45,.05-.91,.09-1.23-.37,.3-.43,.61-.87,.91-1.3,.13-.19,.24-.38,.36-.57,.24-.36,.57-.54,1-.56,1.49-.06,2.72-.7,3.79-1.7,.19-.18,.35-.41,.49-.63,.13-.2,.28-.32,.52-.32,1.52,0,2.89-.53,4.24-1.16,.44-.21,.91-.37,1.37-.53,.11-.04,.3,0,.38,.08,.06,.07,.06,.26,0,.37-.11,.23-.24,.46-.41,.64-1.09,1.19-2.37,2.15-3.82,2.87-.22,.11-.48,.18-.73,.22-.42,.07-.52-.08-.4-.48,.16-.5,.11-.69-.32-.99Z"/><path class="e" d="M105.91,144.01c.56,.05,.98,.29,1.29,.72,.35,.48,.58,1.02,.64,1.61,.12,1.22,.08,2.42-.39,3.57-.08,.19-.18,.37-.3,.53-.14,.19-.33,.18-.46,0-.11-.17-.21-.35-.28-.54-.15-.39-.35-.73-.68-1.01-.54-.46-.61-.75-.3-1.37,.39-.79,.52-1.61,.48-2.48-.01-.34,0-.67,0-1.03Z"/><path class="e" d="M105.88,138.82c.64,1.03,1.11,2.07,1.27,3.22,.06,.4,.06,.82,.05,1.23,0,.3-.09,.33-.37,.24-.4-.13-.81-.26-1.23-.36-.42-.1-.67-.5-.53-.9,.35-.96,.63-1.93,.66-2.96,0-.11,.04-.22,.06-.33,0-.03,.03-.05,.08-.13Z"/><path class="e" d="M64.94,162.8c.18-.28,.36-.26,.58-.19,.65,.2,1.29,.43,1.94,.57,1.34,.29,2.67,.18,3.96-.33,.18-.07,.37-.14,.55-.18,.12-.02,.25,.02,.37,.04-.05,.12-.08,.27-.17,.36-.14,.15-.31,.28-.48,.38-1.41,.81-2.91,1.04-4.47,.53-.61-.2-1.18-.51-1.77-.79-.19-.09-.34-.25-.53-.38Z"/><path class="e" d="M97.48,165.04c-.17,.27-.34,.5-.69,.43-1.07-.21-2.1-.54-3.09-1.02-.03-.01-.05-.03-.07-.05,.33-.41,1.09-.58,1.54-.38,.7,.31,1.41,.6,2.12,.9,.06,.03,.12,.07,.19,.11Z"/><path class="e" d="M95.76,165.99c-1.05,.16-2.06,.07-3.03-.43-.06-.03-.12-.08-.18-.12-.22-.17-.22-.37-.07-.59,.15-.23,.29-.22,.54-.11,.8,.36,1.62,.69,2.43,1.02,.11,.05,.22,.09,.33,.14l-.03,.09Z"/><path class="e" d="M98.22,161.56c.11,.34,.24,.61,.29,.89,.06,.43,.1,.87,.08,1.3-.02,.39-.26,.63-.7,.7-.02-.08-.04-.17-.05-.25-.09-.52-.14-1.05-.27-1.56-.07-.29-.04-.48,.18-.66,.14-.11,.27-.24,.47-.42Z"/><path class="e" d="M99.26,163.74c-.06-.45-.1-.89-.19-1.31-.07-.34-.17-.68-.32-.99-.1-.22-.09-.37,.07-.55,.11-.12,.2-.26,.37-.48,.17,.53,.34,.99,.46,1.45,.08,.31,.07,.63,.11,.95,.06,.42-.12,.71-.51,.93Z"/><path class="e" d="M100.1,159.32c.55,.71,.79,2.73,.36,3.26-.06-.17-.1-.3-.15-.44-.19-.6-.35-1.22-.58-1.81-.12-.29-.13-.49,.08-.71,.09-.09,.18-.19,.29-.3Z"/><path class="e" d="M96.9,162.65c.29,.42,.4,1.15,.25,1.68-.46-.21-.91-.41-1.35-.62-.16-.08-.18-.23-.02-.34,.37-.25,.75-.48,1.13-.72Z"/><path class="e" d="M100.67,158.89c.54-.08,.68,.03,.7,.55,.01,.41,0,.83,0,1.24h-.1c-.2-.6-.4-1.2-.6-1.79Z"/><path d="M92.05,152.66c-1.01-.36-1.83,.06-2.62,.63l-.06-.07c.04-.11,.06-.22,.11-.31,.15-.24,.31-.46,.46-.69,.15-.22,.17-.46,.07-.7-.65-1.58-1.6-2.93-3-3.94-.49-.35-1.04-.52-1.64-.53-.17,0-.35,0-.52,0-1.61-.07-2.61,.81-3.31,2.13-.15,.28-.17,.65-.16,.98,0,.73,.08,1.45-.13,2.17-.3,1.01-1,1.68-1.86,2.21-.04,.02-.09,.03-.18-.01,.1-.13,.19-.27,.31-.38,.76-.7,1.1-1.58,1.21-2.59,.09-.86-.17-1.54-.91-2-.35-.21-.72-.4-1.1-.55-.65-.26-1.17-.66-1.59-1.22-.49-.64-.99-1.27-1.54-1.97,.26,.1,.5,.13,.67,.26,.46,.34,.93,.69,1.32,1.1,.72,.74,1.51,1.36,2.46,1.76,.54,.23,.66,.17,.99-.29,.37-.52,.76-1.04,1.21-1.5,.38-.39,.48-.79,.32-1.28-.22-.69-.61-1.28-1.06-1.82-.14-.17-.28-.34-.41-.52l.06-.07c.24,.13,.49,.24,.7,.4,.57,.41,1.02,.94,1.26,1.6,.27,.71,.74,1.03,1.49,.96,.22-.02,.45,0,.68,0,.44,0,.74-.2,.93-.59,.35-.71,.47-1.46,.34-2.25-.07-.42-.31-.76-.67-.96-.73-.41-1.49-.78-2.24-1.14-.69-.33-1.41-.61-2.11-.94-.26-.12-.48-.33-.72-.5l.05-.08c.3,.11,.6,.24,.9,.32,1.05,.3,2.1,.57,3.14,.88,.39,.12,.78,.27,1.14,.45,1.09,.53,1.58,1.44,1.48,2.66-.05,.65-.23,1.25-.56,1.8-.12,.19-.09,.31,.08,.46,.53,.47,1.05,.95,1.56,1.44,.82,.79,1.45,1.71,1.83,2.78,.19,.53,.46,.97,.98,1.25,.26,.14,.46,.39,.68,.58l-.05,.12Z"/><path d="M101.4,145.61c.05-.3,.1-.6,.14-.9,.2-1.71-1.01-3.78-2.6-4.45-.05-.02-.1-.03-.14-.06-.1-.08-.19-.16-.29-.24,.13-.07,.26-.2,.38-.19,.47,.03,.94,.11,1.4,.17,.08-.38,.14-.85,.27-1.29,.13-.45,.38-.83,.95-1.01-.08,.2-.13,.33-.19,.45-.3,.57-.37,1.18-.2,1.79,.28,1.01,.58,2.01,.88,3.01,.22,.75,.18,1.48-.13,2.19-.09,.21-.26,.39-.4,.58l-.08-.05Z"/></g></g><g><path d="M57.82,154.41c-.01-.06-.01-.12-.02-.18-.02-.17-.04-.33-.07-.49-.09-.48-.22-.92-.4-1.3-.13-.28-.28-.53-.45-.76,0,0,0-.01-.01-.01-.4-.53-.92-.92-1.55-1.19-.24-.1-.51-.18-.79-.25h-.01c-.5-.12-1.06-.17-1.67-.16-.12,0-.24,0-.36,.02-.41,.03-.83,.09-1.24,.12-.99,.07-1.91-.05-2.36-1.27-.83-2.2,1.33-2.69,2.56-3.67l.02-.02c1.62-1.3,2.26-2.88,1.72-4.74-.07-.28-.18-.56-.32-.86-1.01-2.19-2.48-3.95-5.15-3.6-5,.66-9.41,2.37-11.46,7.57-.32,.82-.21,1.86-1.15,2.36-.83,.44-1.65,.9-2.48,1.35-.01,.01-.03,.02-.05,.03-.33,.18-.65,.35-.98,.53-.04,.02-.09,.05-.13,.08-3.27,2.2-4.04,5.6-2.03,8.87,1.09,1.77,2.57,2.88,4.28,3.22,.38,.08,.76,.11,1.14,.11,.29,0,.57-.02,.86-.07,.15-.04,.3-.06,.45-.08,.06,0,.11-.02,.17-.03,1.64-.25,3.24-.2,4.59,.43,4.83,2.27,9.06,1.35,13.58-.06,.4-.12,.75-.27,1.06-.44,.43-.22,.78-.48,1.07-.77,1.18-1.18,1.36-2.88,1.18-4.74Zm-20.67,1.82c-.98,.71-1.95,.98-2.82,.81-1.08-.21-1.83-1.1-2.26-1.81-1.14-1.85-.77-3.43,1.12-4.7,.6-.4,1.17-.58,1.73-.58,.93,0,1.86,.47,3,1.16,1.32,3.13,.21,4.42-.77,5.12Zm15.42,.47c-.09,.04-.18,.07-.27,.1-.18,.05-.35,.09-.52,.13-1.75,.39-3.52,.64-5.3,.88-.43,.06-.9-.08-1.33-.19-.71-.18-5.3-11.24-5.09-12.22,.65-3.04,4.8-5.46,8.52-4.92,.21,.03,.35,.45,.73,.96-3.1,2.32-5.93,4.38-4.37,8.66,1.16,3.18,3.39,4.35,6.6,4.27,.12,0,.25-.02,.39-.04,.28-.03,.58-.07,.86-.04,.07,.01,.14,.02,.2,.04,.07,.02,.13,.04,.18,.07,.06,.03,.11,.07,.16,.12,.04,.02,.07,.06,.1,.11,.03,.04,.07,.1,.09,.16,.06,.13,.1,.3,.11,.51,0,.08,0,.15-.01,.22h0c-.01,.17-.05,.31-.12,.43-.05,.1-.12,.2-.19,.28-.13,.15-.3,.27-.49,.36-.04,.02-.09,.04-.13,.06-.04,.02-.08,.04-.12,.05Z"/><path d="M37.92,151.11c1.32,3.13,.21,4.42-.77,5.12-.98,.71-1.95,.98-2.82,.81-1.08-.21-1.83-1.1-2.26-1.81-1.14-1.85-.77-3.43,1.12-4.7,.6-.4,1.17-.58,1.73-.58,.93,0,1.86,.47,3,1.16Z"/><path d="M53.63,155.3c.05,1.11-1.01,1.45-1.85,1.63-1.75,.39-3.52,.64-5.3,.88-.43,.06-.9-.08-1.33-.19-.71-.18-5.3-11.24-5.09-12.22,.65-3.04,4.8-5.46,8.52-4.92,.21,.03,.35,.45,.73,.96-3.1,2.32-5.93,4.38-4.37,8.66,1.16,3.18,3.39,4.35,6.6,4.27,.76-.02,2.01-.49,2.09,.93Z"/><path class="g" d="M53.63,155.3c.05,1.11-1.01,1.45-1.85,1.63-1.75,.39-3.52,.64-5.3,.88-.43,.06-.9-.08-1.33-.19-.71-.18-5.3-11.24-5.09-12.22,.65-3.04,4.8-5.46,8.52-4.92,.21,.03,.35,.45,.73,.96-3.1,2.32-5.93,4.38-4.37,8.66,1.16,3.18,3.39,4.35,6.6,4.27,.76-.02,2.01-.49,2.09,.93Z"/><g><path class="c" d="M37.15,156.23c-.98,.71-1.95,.98-2.82,.81-1.08-.21-1.83-1.1-2.26-1.81-1.14-1.85-.77-3.43,1.12-4.7,.6-.4,1.17-.58,1.73-.58,.93,0,1.86,.47,3,1.16,1.32,3.13,.21,4.42-.77,5.12Z"/><path d="M31.6,147.89c.33-.18,.65-.35,.98-.53-.32,.14-.65,.31-.98,.53Z"/></g></g><g><g><path d="M171.87,155.54c-.15-1.52-.54-2.92-1.13-4.18-.03-.08-.07-.14-.11-.21-.23-.48-.43-.96-.62-1.45-.67-1.75-1.12-3.56-1.54-5.35,0-.02,0-.05-.02-.08-3.09-13.28-9-24.42-20.57-32.13l-.09-.06c-1.06-.71-.26-.77-1.3-.04-.19,.13-.31,.22-.38,.29-.08,0-.21,.02-.4,.06l-1.65,1.21s-2.21,1.86-5,6.54l-2.15,4.64c-1.55,4.97-1.36,4.66-.58,5.94,.06,.1,.13,.21,.2,.34l5.89,3.28c.27-.18,.56-.31,.87-.44,1.89-.72,2.57,1.16,3.51,2.15,.48,.49,.93,.99,1.36,1.49,2.66,3.07,4.44,6.18,5.37,9.42,.13,.49,.25,.97,.35,1.46,.1,.3,.16,.63,.18,.97,.03,.37,.02,.74-.02,1.14-.24,2-2.24,1.72-3.54,2.1-.52,.14-1.02,.28-1.53,.39-4.47,1.09-8.46,1.18-12.09,.24-.85-.22-1.66-.47-2.46-.8-3.98-1.6-7.53-4.53-10.82-8.83-.93-1.2-2.16-2.17-2.96-2.85-.17-.13-.32-.26-.44-.38-3.54-1.84-6.47-2.4-9.47-2.67-1.51-.14-2.68,.17-3.63,.79-.34,.22-.65,.48-.93,.78-.17,.17-.33,.35-.47,.54-.63,.81-1.11,1.8-1.53,2.87-.05,.12-.09,.24-.12,.36-.09,.25-.16,.49-.21,.72-.3,1.38-.06,2.6,.6,3.67,.38,.59,.89,1.14,1.52,1.65,.17,.13,.35,.27,.54,.4,.27,.19,.58,.36,.9,.53,.37,.19,.76,.38,1.12,.58,1.12,.65,2,1.47,1.4,3.21-.74,2.12-2.61,1.79-4.32,1.72-.38-.02-.75-.02-1.1,.02-.24,.03-.48,.06-.7,.11-1.8,.37-3.15,1.32-3.86,2.79-.24,.48-.41,1.02-.5,1.62-.04,.25-.08,.51-.1,.77-.11,.94-.14,1.92-.02,2.84,.06,.46,.16,.9,.31,1.32,.39,1.1,1.12,2.01,2.36,2.55,5.02,2.17,10.79,3.94,15.76,1.02,5.29-3.13,10.45-1.99,15.26-.71,5.87,1.55,11.61,2.42,17.27,2.32,1.67-.02,3.33-.13,4.98-.34,2.06-.25,4.12-.64,6.16-1.19,.54-.15,1.08-.31,1.61-.48,.04-.01,.07-.01,.1-.02,.76-.24,1.49-.5,2.24-.79,3.66-1.69,6.14-5.08,6.49-9.22,.1-.86,.1-1.72,.01-2.62Zm-52.45-2.51c-1.4,1.8-2.36,4.01-1.72,6.28,.91,3.18-.48,4.66-3.3,5.1-3.34,.52-7.02,.75-9.47-1.77-1.54-1.58,.84-1.85,2.01-1.9,4.22-.14,6.97-1.93,8.1-6.22,.99-3.74-.89-5.99-3.4-8.17-.88-.75-3.03-.72-2.39-2.46,.04-.11,.08-.2,.14-.29,.01-.03,.02-.06,.05-.09,.04-.07,.09-.14,.13-.2s.09-.11,.15-.16c.04-.04,.08-.07,.12-.1,.03-.03,.07-.06,.1-.07,.06-.04,.12-.08,.19-.1,.04-.02,.09-.03,.14-.05,.05-.02,.1-.03,.15-.04,.13-.02,.27-.04,.42-.04,.13,0,.27,.01,.41,.03,.11,.01,.23,.03,.34,.06,.07,.01,.14,.02,.21,.04,.11,.02,.21,.04,.31,.07,.15,.03,.29,.07,.43,.1h.01c.21,.05,.41,.09,.6,.12,1.28,.17,2.49,.75,3.72,1.15,2.82,2.36,5.8,4.54,2.55,8.71Zm10.91,6.83c-1.09,2.21-3.06,2.9-5.13,2.05-2.43-1.01-3.16-3.35-2.05-5.59,1.01-2.03,3.14-2.74,5.29-1.66,2.11,1.06,2.77,2.91,1.89,5.2Zm17.86-30.5c-1.69-.14-1.93-1.2-1.91-2.03,.09-2.88,1.74-5,4.27-5.93,.97-.35,2.75,1.64,2.37,2.56-.96,2.33-4.02,2.97-4.73,5.4Zm1.39,1.78c.55-2.45,2.63-4.06,4.68-5.07,1.31-.63,2.63,1.96,2.37,2.36-1.26,1.89-3,3.47-4.72,5.31-.98-1.05-2.47-2.02-2.33-2.6Zm3.77,3.94c.53-2.13,2.39-3.42,4.19-4.03,1.06-.36,1.62,1.59,2.06,3.5-1.48,.77-3.07,1.88-4.84,2.44-.94,.3-1.64-1.02-1.41-1.91Zm-14.75,27.55c-.44,1.59-1.9,.97-2.76,.48-1.71-.98,.14-2.28-.1-3.42,.62-.93,1.51-1.28,2.34-.61,1.14,.93,.82,2.42,.52,3.55Zm5.33,1.06c-.22,1.49-1.56,1.17-2.63,.82-2.49-.82-.64-2.85-1.2-3.97,.34-1.8,1.77-1.89,2.6-1.56,2.34,.89,1.49,3.05,1.23,4.71Zm12.14-23.73c-.31-2.48,2-2.74,3.58-3.29,1.43-.5,1.77,.83,1.96,1.93,.44,2.58-2.22,1.9-2.93,2.93-1.75,.54-2.5-.68-2.61-1.57Zm10.79,14.99c-.05,.49-.16,.93-.34,1.33-.61,1.34-1.94,2.14-3.65,2.19-.97,.03-1.82-.24-2.48-.75-.47-.36-.86-.84-1.11-1.42-.21-.5-.33-1.09-.35-1.72-.03-1.58,.56-2.75,1.68-3.43,.39-.25,.84-.43,1.36-.55,.22-.06,.44-.09,.68-.13,2.47-.07,3.99,1.36,4.21,3.58,.03,.32,.03,.61,0,.9Z"/><path class="f" d="M162.93,144.08c-.02,.61-.21,.93-.52,1.11-.09,.06-.19,.09-.29,.12-.68,.21-1.63,.01-2.16,.47-.07-.02-.12-.02-.19-.04-.55-.08-.99-.29-1.24-.64-.22-.28-.29-.66-.2-1.1,.04-.24,.13-.47,.24-.66,.55-.93,1.7-1.24,2.64-1.46,.2-.04,.37-.05,.51-.05,1.14,.05,1.24,1.38,1.21,2.25Z"/><path class="f" d="M149.98,162.9c.03,.53-.01,1.05-.09,1.54-.18,1.12-2.16,.7-4.06,.2,0-1.67-.23-3.6,.11-5.43,.17-.96,1.67-.96,2.35-.35,.14,.12,.26,.25,.37,.38t.02,.01c.07,.08,.14,.17,.2,.26,.1,.13,.19,.25,.27,.39,.09,.13,.17,.27,.24,.41,.09,.17,.17,.36,.22,.55,.07,.14,.11,.31,.16,.47v.02s.02,.07,.02,.1c.09,.31,.14,.64,.16,.96,.02,.16,.03,.33,.03,.49Z"/><path class="f" d="M155.81,163.89c-.05,1.46-2.96,1.4-3.18,.98-.3-.54-.56-1.1-.79-1.69-.64-1.56-1.1-3.23-1.71-4.95,1.4-.39,2.95-1.25,3.41-.85,.06,.04,.11,.1,.16,.15l.2,.2c1.03,1.04,1.55,2.4,1.78,3.8,.13,.79,.15,1.59,.13,2.36Z"/><path d="M119.42,153.03c-1.4,1.79-2.36,4.01-1.72,6.28,.9,3.18-.49,4.66-3.31,5.1-3.34,.52-7.02,.74-9.47-1.77-1.54-1.58,.85-1.85,2.01-1.9,4.22-.15,6.98-1.93,8.1-6.22,.99-3.75-.89-5.99-3.4-8.17-.88-.76-3.04-.72-2.39-2.46,.69-1.87,2.56-.91,3.91-.72,1.28,.17,2.48,.76,3.71,1.15,2.82,2.36,5.8,4.54,2.55,8.71Z"/><path d="M130.33,159.86c-1.09,2.21-3.06,2.9-5.14,2.04-2.43-1-3.16-3.34-2.04-5.59,1-2.03,3.14-2.74,5.28-1.66,2.11,1.06,2.78,2.91,1.9,5.2Z"/><path d="M138.6,162.63c-.44,1.59-1.9,.97-2.75,.49-1.72-.98,.14-2.28-.1-3.42,.62-.94,1.51-1.29,2.34-.61,1.14,.93,.82,2.42,.52,3.54Z"/><path d="M143.93,163.69c-.23,1.49-1.57,1.17-2.63,.82-2.49-.82-.64-2.86-1.21-3.97,.34-1.79,1.77-1.88,2.61-1.56,2.34,.89,1.49,3.05,1.23,4.71Z"/><path class="g" d="M119.42,153.03c-1.4,1.79-2.36,4.01-1.72,6.28,.9,3.18-.49,4.66-3.31,5.1-3.34,.52-7.02,.74-9.47-1.77-1.54-1.58,.85-1.85,2.01-1.9,4.22-.15,6.98-1.93,8.1-6.22,.99-3.75-.89-5.99-3.4-8.17-.88-.76-3.04-.72-2.39-2.46,.69-1.87,2.56-.91,3.91-.72,1.28,.17,2.48,.76,3.71,1.15,2.82,2.36,5.8,4.54,2.55,8.71Z"/><path class="c" d="M130.33,159.86c-1.09,2.21-3.06,2.9-5.14,2.04-2.43-1-3.16-3.34-2.04-5.59,1-2.03,3.14-2.74,5.28-1.66,2.11,1.06,2.78,2.91,1.9,5.2Z"/><path class="f" d="M143.93,163.69c-.23,1.49-1.57,1.17-2.63,.82-2.49-.82-.64-2.86-1.21-3.97,.34-1.79,1.77-1.88,2.61-1.56,2.34,.89,1.49,3.05,1.23,4.71Z"/><path class="f" d="M138.6,162.63c-.44,1.59-1.9,.97-2.75,.49-1.72-.98,.14-2.28-.1-3.42,.62-.94,1.51-1.29,2.34-.61,1.14,.93,.82,2.42,.52,3.54Z"/></g><g><path d="M152.92,123.96c-.96,2.34-4.02,2.97-4.73,5.41-1.69-.15-1.93-1.21-1.91-2.03,.09-2.88,1.74-5,4.27-5.94,.97-.35,2.75,1.65,2.37,2.56Z"/><path d="M156.63,128.43c-1.26,1.9-3,3.48-4.72,5.32-.98-1.05-2.47-2.02-2.34-2.61,.55-2.45,2.63-4.05,4.68-5.07,1.31-.63,2.63,1.96,2.37,2.36Z"/><path d="M159.6,134.55c-1.48,.78-3.07,1.88-4.84,2.45-.94,.29-1.64-1.03-1.41-1.92,.53-2.12,2.39-3.42,4.19-4.03,1.06-.36,1.63,1.59,2.07,3.5Z"/><path d="M158.68,141.53c-1.75,.54-2.49-.68-2.61-1.57-.3-2.48,2-2.74,3.58-3.3,1.43-.5,1.77,.84,1.96,1.93,.44,2.58-2.22,1.91-2.93,2.93Z"/><path d="M154.06,149.39c-.05-.33-.1-.66-.18-.97,.1,.3,.16,.63,.18,.97Z"/><path class="f" d="M152.92,123.96c-.96,2.34-4.02,2.97-4.73,5.41-1.69-.15-1.93-1.21-1.91-2.03,.09-2.88,1.74-5,4.27-5.94,.97-.35,2.75,1.65,2.37,2.56Z"/><path class="f" d="M156.63,128.43c-1.26,1.9-3,3.48-4.72,5.32-.98-1.05-2.47-2.02-2.34-2.61,.55-2.45,2.63-4.05,4.68-5.07,1.31-.63,2.63,1.96,2.37,2.36Z"/><path class="f" d="M159.6,134.55c-1.48,.78-3.07,1.88-4.84,2.45-.94,.29-1.64-1.03-1.41-1.92,.53-2.12,2.39-3.42,4.19-4.03,1.06-.36,1.63,1.59,2.07,3.5Z"/><path class="f" d="M158.68,141.53c-1.75,.54-2.49-.68-2.61-1.57-.3-2.48,2-2.74,3.58-3.3,1.43-.5,1.77,.84,1.96,1.93,.44,2.58-2.22,1.91-2.93,2.93Z"/></g><path d="M153.88,148.42c.08,.31,.13,.64,.18,.97-.02-.34-.08-.67-.18-.97Zm9.25,19.75c.78-.19,1.54-.46,2.24-.79-.75,.29-1.48,.55-2.24,.79Z"/></g></svg>